<?xml version="1.0" encoding="utf-8"?>
<!-- Generator: Adobe Illustrator 18.0.0, SVG Export Plug-In . SVG Version: 6.00 Build 0)  -->
<!DOCTYPE svg PUBLIC "-//W3C//DTD SVG 1.1//EN" "http://www.w3.org/Graphics/SVG/1.1/DTD/svg11.dtd">
<svg version="1.1" id="Capa_1" xmlns="http://www.w3.org/2000/svg" xmlns:xlink="http://www.w3.org/1999/xlink" x="0px" y="0px"
	 viewBox="0 0 250 250" enable-background="new 0 0 250 250" xml:space="preserve">
<path fill="#FFFFFF" d="M246.5,103.8L132.1,14.3c-2-1.5-4.5-2.4-7.1-2.4c-2.6,0-5.1,0.8-7.1,2.4L3.5,103.8c-4.5,3.5-3.5,7.6-3.1,8.7
	c0.4,1.2,2.1,4.9,7.8,4.9H31v110.2c0,5.7,4.6,10.4,10.4,10.4h53.6c5.7,0,10.4-4.6,10.4-10.4v-49.3h39.5v49.3
	c0,5.7,4.6,10.4,10.4,10.4h53.6c5.7,0,10.4-4.6,10.4-10.4V117.5h22.8c5.7,0,7.4-3.8,7.8-4.9C250,111.4,251,107.3,246.5,103.8z
	 M217,105c-5.7,0-10.4,4.6-10.4,10.4v110.2h-49.4v-49.3c0-5.7-4.6-10.4-10.4-10.4h-43.6c-5.7,0-10.4,4.6-10.4,10.4v49.3H43.4V115.4
	c0-5.7-4.6-10.4-10.4-10.4h-11L125,24.5L227.9,105C227.9,105,217,105,217,105z"/>
</svg>
