<?xml version="1.0" encoding="utf-8"?>
<!-- Generator: Adobe Illustrator 18.0.0, SVG Export Plug-In . SVG Version: 6.00 Build 0)  -->
<!DOCTYPE svg PUBLIC "-//W3C//DTD SVG 1.1//EN" "http://www.w3.org/Graphics/SVG/1.1/DTD/svg11.dtd">
<svg version="1.1" id="Capa_1" xmlns="http://www.w3.org/2000/svg" xmlns:xlink="http://www.w3.org/1999/xlink" x="0px" y="0px"
	 viewBox="0 57.3 250 135.7" enable-background="new 0 57.3 250 135.7" xml:space="preserve">
<g>
	<rect id="Baza" x="142" y="149.6" fill="#FFFFFF" width="34.7" height="4.3"/>
	<path fill="#FFFFFF" stroke="#FFFFFF" stroke-width="0" stroke-linecap="round" stroke-linejoin="round" d="M164,119.5
		c-3-1.2-6.3-1.2-9.3,0c-5,2.1-8.3,7-8.3,12.4v16.3h25.9v-16.4C172.2,126.4,169,121.5,164,119.5z M158.8,123.6L158.8,123.6
		c-0.4,0.6-0.9,1-1.5,1.3c-0.6,0.3-1.1,0.7-1.7,1c-1.3,0.9-2.2,1.3-2.8,2.6c-0.1,0.2-0.2,0.4-0.2,0.5v0c-0.1,0.7-0.7,1.2-1.4,1.3
		c-0.1,0-0.1,0-0.1,0c-1.2,0.1-1.7-1.1-1.6-2.3c0-0.1,0.5-1.8,1.5-3.3c0.8-1.4,2.6-2.6,2.6-2.6c0.4-0.3,1.7-1,2.7-1.1
		c1.1-0.1,2.3,0.5,2.6,0.8C159.2,122.5,159.2,123.2,158.8,123.6z"/>
	<rect id="bling5" x="176.6" y="129.7" fill="#FFFFFF" width="15.6" height="3.3"/>
	
		<rect id="bling4_1_" x="176.1" y="105.7" transform="matrix(-0.7071 -0.7071 0.7071 -0.7071 223.2741 319.4559)" fill="#FFFFFF" width="3.3" height="15.6"/>
	<rect id="bling3" x="157.7" y="98.4" fill="#FFFFFF" width="3.3" height="15.6"/>
	
		<rect id="bling2" x="139.1" y="105.7" transform="matrix(-0.7071 0.7071 -0.7071 -0.7071 320.4436 94.2358)" fill="#FFFFFF" width="3.3" height="15.6"/>
	<rect id="bling1" x="126.2" y="129.7" fill="#FFFFFF" width="15.6" height="3.3"/>
	<path id="Leva" fill="#FFFFFF" d="M152.4,179.9l-20.7,5.8c-3.7,1-9.9,1-13.5,0l-56.7-15.3c-3.2-0.9-5.9-4.4-5.9-7.7V90.3
		c0-0.8-0.5-1.5-1.2-1.7c-1.2-0.4-2.4,0.5-2.4,1.7v72.5c0,5,3.8,9.9,8.5,11.2l56.6,15.3c2.2,0.6,4.9,0.9,7.7,0.9
		c2.8,0,5.5-0.3,7.7-0.9l22-6.2c0.9-0.2,1.3-1.1,1.3-2.1v-27.3h-3.5L152.4,179.9L152.4,179.9z"/>
	<path id="Desna" fill="#FFFFFF" d="M162.6,153.5v25.1c0,1,0.8,1.8,1.8,1.8c0.3,0,0.5,0,0.7-0.1l24.2-6.5c4.8-1.3,8.6-6.2,8.6-11.2
		V85.1c0-2.6-1-4.8-2.8-6.2c-1.8-1.5-4.2-2-6.7-1.4L132,90c-3.8,0.8-10.1,0.7-13.8-0.2L61.7,75.8l56-11.7c3.8-0.8,10.2-0.8,13.9,0.1
		l42.8,9.2c1,0.2,1.9-0.4,2.1-1.4c0.2-1-0.4-1.9-1.4-2.1l-42.8-9.2c-4.2-0.9-11.2-0.9-15.4-0.1L60.6,72.3c-1.1,0.2-4.5,0.9-4.5,3.3
		c-0.1,2.4,3.3,3.3,4.3,3.5l56.8,14.2c4.2,1.1,11.1,1.1,15.4,0.2L189.2,81c1.4-0.3,2.7-0.1,3.7,0.7c0.9,0.8,1.5,2,1.5,3.4v77.6
		c0,3.3-2.7,6.8-5.9,7.7l-22.2,5.9l0.1-22.7L162.6,153.5L162.6,153.5z"/>
</g>
</svg>
