<?xml version="1.0" standalone="no"?>
<!DOCTYPE svg PUBLIC "-//W3C//DTD SVG 1.1//EN" "http://www.w3.org/Graphics/SVG/1.1/DTD/svg11.dtd" >
<svg xmlns="http://www.w3.org/2000/svg">
<metadata></metadata>
<defs>
<font id="vonique_64regular" horiz-adv-x="110" >
<font-face units-per-em="2048" ascent="1638" descent="-410" />
<missing-glyph horiz-adv-x="508" />
<glyph horiz-adv-x="0" />
<glyph unicode="&#xd;" horiz-adv-x="508" />
<glyph unicode=" "  horiz-adv-x="508" />
<glyph unicode="&#x09;" horiz-adv-x="508" />
<glyph unicode="&#xa0;" horiz-adv-x="508" />
<glyph unicode="!" horiz-adv-x="291" d="M0 74q0 38 26.5 64.5t64.5 26.5q37 0 63.5 -26.5t26.5 -64.5q0 -37 -26.5 -63.5t-63.5 -26.5q-38 0 -64.5 26.5t-26.5 63.5zM38 265v1174h102v-1174h-102z" />
<glyph unicode="&#x22;" horiz-adv-x="434" d="M0 991h108l1 442h-109v-442zM215 991h108l1 442h-109v-442z" />
<glyph unicode="#" horiz-adv-x="1110" d="M0 509h185l-111 -459h103l110 459h297l-111 -459h103l110 459h222v99h-198l73 303h217v99h-193l86 359h-102l-87 -359h-296l86 359h-102l-87 -359h-213v-99h190l-73 -303h-209v-99zM311 608l73 303h296l-72 -303h-297z" />
<glyph unicode="$" horiz-adv-x="1104" d="M0 487q3 -200 148 -341q127 -124 300 -139v-98h109v99q167 19 291 141q146 143 146 346q0 154 -90 280q-87 124 -229 178q-58 22 -118 29v341q35 -13 63 -41q52 -51 52 -123h99q0 113 -80 193q-59 58 -134 74v108h-109v-106q-83 -14 -145 -76q-81 -80 -81 -193t81 -193 q4 -4 15 -13q58 -50 130 -62v-784q-131 14 -230 109q-115 112 -119 271h-99zM322 1159q0 72 51 123q33 33 75 45v-335q-42 12 -75 45q-51 51 -51 122zM557 108v775q126 -18 221 -111q116 -115 116 -277q0 -161 -116 -276q-95 -93 -221 -111z" />
<glyph unicode="%" horiz-adv-x="1449" d="M0 1038q0 130 91.5 221t220.5 91q130 0 221.5 -91t91.5 -221q0 -129 -91.5 -221t-221.5 -92q-129 0 -220.5 92t-91.5 221zM90 1041q0 -93 66 -159t159 -66t159.5 66t66.5 159q0 94 -66.5 159.5t-159.5 65.5t-159 -65.5t-66 -159.5zM322 175h107l570 1091h-106zM714 435 q0 129 91.5 220.5t220.5 91.5q130 0 221.5 -91.5t91.5 -220.5t-91.5 -221t-221.5 -92q-129 0 -220.5 92t-91.5 221zM804 438q0 -93 66 -159.5t159 -66.5q94 0 160 66.5t66 159.5t-66 159t-160 66q-93 0 -159 -66t-66 -159z" />
<glyph unicode="&#x26;" horiz-adv-x="1407" d="M0 529q0 -230 162 -393q161 -162 390 -162t390 162q162 163 162 393q0 66 -16 133q126 52 187 154l22 35l-1 1h-131q-93 -109 -236 -109h-120q-227 0 -353 -194l-20 -33h132q84 115 241 115h120q21 0 43 2q13 -53 13 -104q0 -179 -127 -307q-127 -127 -306 -127t-306 127 q-127 128 -127 307q0 114 56 213q55 95 147 154q14 8 24 13q13 7 9 5q3 2 1 1q96 54 141 63q-109 23 -131 155q-2 13 -2 19q0 78 55 134q56 55 133 55q78 0 133 -55q55 -56 55 -134q0 -44 -20 -84h127q12 42 12 84q0 128 -90 219t-217 91t-217 -91t-90 -219q0 -75 34 -141 q-127 -74 -201 -200q-78 -131 -78 -282zM557 961q7 0 3 0q-3 0 4 0l-2 1h-2h-1z" />
<glyph unicode="'" horiz-adv-x="471" d="M2 1525h113l248 409h-120z" />
<glyph unicode="(" horiz-adv-x="525" d="M40 540q53 -289 303 -540l72 71q-400 400 -249 874q78 245 249 417l-72 71q-178 -179 -267 -445q-76 -228 -36 -448z" />
<glyph unicode=")" horiz-adv-x="525" d="M0 71l71 -71q251 251 304 540q40 220 -36 448q-89 266 -268 445l-71 -71q171 -172 249 -417q151 -474 -249 -874z" />
<glyph unicode="*" horiz-adv-x="818" d="M0 1028h230l-162 -163l72 -73l163 163v-230h102v230l163 -162l72 72l-162 163h230v102h-230l162 163l-72 72l-163 -162v230h-102v-230l-163 162l-72 -72l162 -163h-230v-102z" />
<glyph unicode="+" horiz-adv-x="885" d="M0 557h336v-336h103v336h336v103h-336v336h-103v-336h-336v-103z" />
<glyph unicode="," horiz-adv-x="384" d="M0 -98h113l161 256h-120z" />
<glyph unicode="-" horiz-adv-x="885" d="M0 557h775v103h-775v-103z" />
<glyph unicode="." horiz-adv-x="291" d="M0 74q0 38 26.5 64.5t64.5 26.5q37 0 63.5 -26.5t26.5 -64.5q0 -37 -26.5 -63.5t-63.5 -26.5q-38 0 -64.5 26.5t-26.5 63.5z" />
<glyph unicode="/" horiz-adv-x="960" d="M0 0h115l745 1432h-115z" />
<glyph unicode="0" horiz-adv-x="1282" d="M0 719q0 -306 172 -522q172 -217 414 -217q243 0 414 217q172 216 172 522t-172 522q-171 217 -414 217q-242 0 -414 -217q-172 -216 -172 -522zM109 719q0 261 140 446q140 184 337 184q198 0 338 -184q140 -185 140 -446t-140 -446q-140 -184 -338 -184 q-197 0 -337 184q-140 185 -140 446z" />
<glyph unicode="1" horiz-adv-x="312" d="M0 1327h98v-1327h104v1430h-2v2h-200v-105z" />
<glyph unicode="2" horiz-adv-x="981" d="M0 0h871v104h-684l527 931q51 82 44.5 172t-82.5 158q-85 84 -204 84q-112 0 -195 -76q-82 -77 -90 -188q-2 -14 -2 -20q0 -36 10 -73h118q-4 8 -7 16v1q-3 8 -5 16q0 2 -1 3q-1 6 -2 15q-1 5 -1 3q-1 10 -1 19q0 10 2 20q3 31 18 60h1q2 5 6 11q1 2 2 3q2 4 7 9q2 4 3 5 q2 3 6 7q3 4 4 5q4 3 7 6l5 5q4 3 7 6q4 3 6 4q5 3 7 5q4 2 7 4q5 3 7 4q3 1 8 3q4 2 7 3q4 2 9 4q6 2 7 2q2 0 9 2l7 2q3 0 11 2h3h3q9 1 17 1q73 0 124 -51t51 -123q0 -31 -12 -61q-2 -4 -4 -6z" />
<glyph unicode="3" horiz-adv-x="1145" d="M0 419q28 -187 173 -312q147 -127 341 -127q216 0 368 150q153 151 153 364t-153 363q-75 74 -156 121q78 78 78 204q0 119 -85 204q-85 84 -205 84q-114 0 -197 -78q-83 -77 -91 -189q-1 -15 -1 -21q0 -36 10 -74h119q-4 8 -7 17q1 -2 0 1q-3 7 -5 16q0 2 -1 2 q-1 7 -2 16q-1 4 -1 3q-1 10 -1 19q0 10 1 21q4 31 19 60l1 1q2 5 6 11q2 4 2 3l6 9q3 4 4 4q2 3 6 8l5 5l6 6q3 3 6 5q3 3 7 6t6 4q4 3 7 5q4 2 7 4q4 3 7 4t8 4q4 2 7 3q2 1 8 3t8 2l9 3q7 2 7 1q3 1 11 2t6 1q9 1 17 1q74 0 126 -52q52 -51 52 -124q0 -54 -62 -133 l-78 -83l74 -49q148 -78 223 -193q74 -104 74 -230q0 -166 -119 -284q-120 -118 -290 -118q-148 0 -261 94q-113 92 -140 233h-113z" />
<glyph unicode="4" horiz-adv-x="1182" d="M0 409h763v-409h126v409h177v114h-177v909l-888 -1021h2zM262 523l499 585l-1 -585h-498z" />
<glyph unicode="5" horiz-adv-x="1236" d="M0 411q49 -179 201 -294q155 -117 352 -117q237 0 404 160q169 161 169 389q0 227 -168 388q-167 161 -403 161h-195v230h352v104h-456v-3v-435v-3h297v-1q192 0 329 -129q136 -129 136 -312q0 -182 -135 -311q-137 -130 -330 -130q-152 0 -274 86q-120 83 -167 217h-112 z" />
<glyph unicode="6" horiz-adv-x="1346" d="M11 608q-11 -252 159 -437q170 -186 421 -197t437 159q185 170 197 421q11 251 -159 437q-110 120 -264 168q-149 47 -270 26l273 249h-154l-443 -405q-186 -170 -197 -421zM128 597q10 204 160 343q152 139 357 129q204 -9 343 -160t129 -356q-9 -205 -160 -343 q-151 -139 -356 -130q-205 10 -343 160q-139 152 -130 357z" />
<glyph unicode="7" horiz-adv-x="1168" d="M0 1327h865l-846 -1327h125l846 1327l68 105h-1058v-105z" />
<glyph unicode="8" horiz-adv-x="1148" d="M0 484q0 -212 152 -362q152 -151 367 -151t367 151q152 150 152 362q0 160 -92 291q-90 128 -237 185q99 86 99 215q0 119 -85 203q-84 84 -204 84q-119 0 -204 -84q-84 -84 -84 -203q0 -129 98 -215q-101 -39 -177 -114q-152 -150 -152 -362zM112 484q0 165 119 283 q119 117 288 117t288 -117q120 -118 120 -283q0 -166 -120 -283q-119 -118 -288 -118q-168 0 -288 118q-119 117 -119 283zM342 1175q0 73 52 124t125 51t125 -51t52 -124q0 -72 -52 -124q-52 -51 -125 -51t-125 51q-52 52 -52 124z" />
<glyph unicode="9" horiz-adv-x="1346" d="M5 880q-11 -251 159 -437q110 -120 264 -168q149 -47 270 -26l-273 -249h154l443 405q186 170 197 421q11 252 -159 437q-170 186 -421 197t-437 -159q-185 -170 -197 -421zM113 882q9 204 160 342q151 139 356 130t343 -160q139 -151 130 -357q-10 -204 -160 -343 q-152 -138 -357 -129q-204 9 -343 160t-129 357z" />
<glyph unicode=":" horiz-adv-x="291" d="M0 484q0 38 26.5 64.5t64.5 26.5q37 0 63.5 -26.5t26.5 -64.5q0 -37 -26.5 -63.5t-63.5 -26.5q-38 0 -64.5 26.5t-26.5 63.5zM0 949q0 38 26.5 64.5t64.5 26.5q37 0 63.5 -26.5t26.5 -64.5q0 -37 -26.5 -63.5t-63.5 -26.5q-38 0 -64.5 26.5t-26.5 63.5z" />
<glyph unicode=";" horiz-adv-x="396" d="M0 309h113l161 256h-120zM104 949q0 38 26.5 64.5t64.5 26.5t64.5 -26.5t26.5 -64.5q0 -37 -26.5 -63.5t-64.5 -26.5t-64.5 26.5t-26.5 63.5z" />
<glyph unicode="&#x3c;" horiz-adv-x="1084" d="M0 724l974 -504v125q-531 275 -733 379q67 35 348 181q312 161 385 199v125z" />
<glyph unicode="=" horiz-adv-x="885" d="M0 407h775v103h-775v-103zM0 687h775v103h-775v-103z" />
<glyph unicode="&#x3e;" horiz-adv-x="1084" d="M0 220l974 504l-974 505v-125q72 -38 384 -199q281 -146 348 -181q-202 -104 -732 -379v-125z" />
<glyph unicode="?" horiz-adv-x="1285" d="M0 905h111v2v1q0 183 139 316q140 132 337 132q199 0 338 -133t139 -320t-140 -320q-139 -133 -337 -133h-48v-190h108v83q223 21 375 181q153 162 153 379q0 235 -173 400q-172 164 -415 164t-415 -165q-172 -166 -172 -394v-1v-2zM502 74q0 38 26.5 64.5t64.5 26.5 t64.5 -26.5t26.5 -64.5q0 -37 -26.5 -63.5t-64.5 -26.5t-64.5 26.5t-26.5 63.5z" />
<glyph unicode="@" horiz-adv-x="1620" d="M0 702q0 -242 141 -439q140 -197 369 -275l32 94q-198 68 -320 239t-122 381q0 270 192 462t462 192q271 0 463 -192t192 -462v-6q0 -219 -72 -291q-17 -17 -37 -17q-40 7 -73 50q-58 77 -58 242v256h-89q-126 158 -326 158q-171 0 -293 -121q-121 -122 -121 -293 q0 -172 121 -293q122 -122 293 -122q109 0 203 53q91 51 147 140q39 -102 117 -145q40 -23 75 -25q65 0 112 47q102 102 101 362v5q0 312 -221 533t-534 221q-312 0 -533 -221t-221 -533zM440 680q0 130 92 222q92 93 222 93q131 0 223 -93q92 -92 92 -222q0 -131 -92 -223 t-223 -92q-130 0 -222 92t-92 223z" />
<glyph unicode="A" horiz-adv-x="1601" d="M0 -2l684 1302v1l72 134l69 -130l685 -1307h-127l-627 1188l-623 -1188h-133z" />
<glyph unicode="B" horiz-adv-x="1213" d="M0 0h104h459q134 0 272 67q268 130 268 450q0 344 -306 467q102 68 102 196q0 135 -112 203q-83 52 -188 52h-599v-1435zM104 103v828h459q114 0 222 -54q210 -104 210 -360q0 -255 -210 -360q-107 -53 -222 -54h-459zM104 1035v292h495q55 0 103 -20q88 -37 88 -127 q-1 -45 -29 -81q-48 -64 -161 -64h-496z" />
<glyph unicode="C" horiz-adv-x="1536" d="M-3 719q0 306 217 524q218 217 525 217q257 0 458 -159q199 -155 260 -394h-112q-59 194 -224 320q-169 127 -382 127q-264 0 -450 -186t-186 -449q0 -264 186 -450t450 -186q208 0 375 123q164 120 227 309h112q-65 -232 -262 -384q-199 -154 -452 -154q-307 0 -525 217 q-217 218 -217 525z" />
<glyph unicode="D" horiz-adv-x="1443" d="M0 1h105h444q20 -1 42 -1q82 0 175 18q224 43 366 175q201 187 201 523t-201 523q-142 133 -355 175q-88 17 -228 17l-359 1h-189zM105 109v1214h447h2q18 1 38 1q63 0 143 -14q202 -36 324 -150q166 -155 166 -444q0 -288 -166 -443q-175 -164 -505 -164h-449z" />
<glyph unicode="E" horiz-adv-x="1206" d="M0 0h1096v106h-987v1222h987v107h-1096v-1435zM274 408h818v105h-818v-105z" />
<glyph unicode="F" horiz-adv-x="1206" d="M0 0l109 1v1327h987v107h-1096v-1435zM274 408h818v105h-818v-105z" />
<glyph unicode="G" horiz-adv-x="1575" d="M0 721q0 -308 218 -526t526 -218q246 0 445 150q194 147 267 377h-962v-108h788q-86 -138 -226 -220q-146 -85 -312 -85q-261 0 -445 185q-185 184 -185 445t185 446q184 184 445 184q211 0 378 -126q165 -124 225 -320h118q-62 244 -261 401q-202 159 -460 159 q-308 0 -526 -218t-218 -526z" />
<glyph unicode="H" horiz-adv-x="1307" d="M0 0h105v408h987v-408h105v1434h-105v-922h-987v922h-105v-1434z" />
<glyph unicode="I" horiz-adv-x="215" d="M0 0h105v1434h-105v-1434z" />
<glyph unicode="J" horiz-adv-x="1488" d="M0 -460q61 -182 247 -327q190 -147 431 -147q290 0 495 204q205 206 205 497v1667h-110v-1667q0 -246 -173 -418q-173 -173 -417 -173q-195 0 -352 116q-153 112 -211 248h-115z" />
<glyph unicode="K" horiz-adv-x="1476" d="M0 -5h105v1438h-105v-1438zM277 520l941 -941h148l-941 941l921 917h-149z" />
<glyph unicode="L" horiz-adv-x="1201" d="M0 0h1091v105h-986v1328h-105v-1433z" />
<glyph unicode="M" horiz-adv-x="1416" d="M0 0h109v977l541 -977l546 987v-987h111l-2 1433l-649 -1173l-656 1176v-1436z" />
<glyph unicode="N" horiz-adv-x="1406" d="M0 0h105v1180l1086 -1077l104 -103h1v1433h-105v-1182l-1086 1077l-105 105v-1433z" />
<glyph unicode="O" horiz-adv-x="1584" d="M0 720q0 305 216 521t521 216t521 -216t216 -521t-216 -521t-521 -216t-521 216t-216 521zM104 720q0 -262 185 -448q186 -185 448 -185t448 185q185 186 185 448t-185 448q-186 185 -448 185t-448 -185q-185 -186 -185 -448z" />
<glyph unicode="P" horiz-adv-x="1104" d="M0 0h105v397h348q135 0 272 66q269 131 269 452q0 320 -269 451q-137 67 -272 67h-453v-1433zM105 500v829h348q114 0 223 -54q209 -104 209 -360q0 -257 -210 -360q-108 -54 -222 -55h-348z" />
<glyph unicode="Q" horiz-adv-x="1608" d="M0 720q0 305 216 521t521 216t521 -216t216 -521t-216 -521t-521 -216t-521 216t-216 521zM104 720q0 -262 185 -448q186 -185 448 -185t448 185q185 186 185 448t-185 448q-186 185 -448 185t-448 -185q-185 -186 -185 -448zM249 -54l20 -34q28 -45 84 -89 q107 -84 245 -84h287q101 0 179 -59q41 -31 61 -63l21 -33l33 20l55 34l-20 33q-28 46 -83 89q-108 84 -246 84h-287q-100 0 -179 59q-40 32 -60 64l-22 33l-32 -21z" />
<glyph unicode="R" horiz-adv-x="1106" d="M0 0h105v396v104v828h351q115 0 223 -54q209 -104 209 -360t-209 -360q-109 -54 -223 -54h-206l105 -104l408 -396h155l-412 400q173 20 296 106q194 137 194 408q0 320 -268 451q-137 67 -272 67h-351h-105v-1432z" />
<glyph unicode="S" horiz-adv-x="1143" d="M0 477q3 -208 154 -354q150 -147 362 -147q213 0 365 150q152 148 152 359q0 160 -94 291q-90 129 -238 185q-90 35 -185 35q-75 0 -128 53t-53 126q0 75 53 128t128 53t128 -53q54 -53 54 -128h103q0 118 -83 201q-84 83 -202 83t-201 -83q-84 -83 -84 -201 q0 -117 84 -200q4 -4 15 -14q80 -68 186 -68q171 0 292 -120q121 -119 121 -288q0 -167 -121 -286q-121 -120 -292 -120q-168 0 -289 117q-120 116 -124 281h-103z" />
<glyph unicode="T" horiz-adv-x="1189" d="M0 1327h486v-1327h105v1327h488v105h-1079v-105z" />
<glyph unicode="U" horiz-adv-x="1418" d="M0 733v702h101v-702q3 -258 164 -440q162 -182 389 -182t388 181t165 439v704h101v-704q-4 -304 -195 -519t-459 -215q-269 0 -460 216q-191 215 -194 520z" />
<glyph unicode="V" horiz-adv-x="1601" d="M0 1435h127l627 -1187l623 1187h133l-684 -1302v-1l-72 -134l-68 130z" />
<glyph unicode="W" horiz-adv-x="1895" d="M0 1433h121l630 -1197l107 203l-523 994h121l463 -878l461 878h120l-521 -994l108 -203l628 1197h121l-749 -1428l-168 318l-168 -319z" />
<glyph unicode="X" horiz-adv-x="1340" d="M0 1434l553 -975l-261 -459h125l198 350l198 -350h124l-260 459l553 975h-125l-490 -865l-491 865h-124z" />
<glyph unicode="Y" horiz-adv-x="1248" d="M0 1434l517 -984v-450h105v450l516 984h-114l-455 -874l-454 874h-115z" />
<glyph unicode="Z" horiz-adv-x="1195" d="M0 1327h886l-878 -1327h1075v105h-874l876 1327h-1085v-105z" />
<glyph unicode="[" horiz-adv-x="303" d="M0 0v1432h98v-2h95v-105h-95v-1220h95v-105h-193z" />
<glyph unicode="\" horiz-adv-x="960" d="M0 1432l745 -1432h115l-745 1432h-115z" />
<glyph unicode="]" horiz-adv-x="303" d="M0 0v105h95v1220h-95v105h95v2h98v-1432h-193z" />
<glyph unicode="^" horiz-adv-x="539" d="M0 1026l215 415l214 -415h-107l-105 228l-110 -228h-107z" />
<glyph unicode="_" horiz-adv-x="885" d="M0 0v-103h775v103h-775z" />
<glyph unicode="`" horiz-adv-x="471" d="M-48 1934l248 -409h113l-241 409h-120z" />
<glyph unicode="a" horiz-adv-x="1584" d="M0 720q0 305 216 521t521 216t521 -216t216 -521v-718h-99v346q-47 -79 -117 -149q-216 -216 -521 -216t-521 216t-216 521zM104 720q0 -262 185 -448q186 -185 448 -185t448 185q185 186 185 448t-185 448q-186 185 -448 185t-448 -185q-185 -186 -185 -448z" />
<glyph unicode="b" horiz-adv-x="1213" d="M0 0h104h459q134 0 272 67q268 130 268 450q0 344 -306 467q102 68 102 196q0 135 -112 203q-83 52 -188 52h-599v-1435zM104 103v828h459q114 0 222 -54q210 -104 210 -360q0 -255 -210 -360q-107 -53 -222 -54h-459zM104 1035v292h495q55 0 103 -20q88 -37 88 -127 q-1 -45 -29 -81q-48 -64 -161 -64h-496z" />
<glyph unicode="c" horiz-adv-x="1536" d="M-3 719q0 306 217 524q218 217 525 217q257 0 458 -159q199 -155 260 -394h-112q-59 194 -224 320q-169 127 -382 127q-264 0 -450 -186t-186 -449q0 -264 186 -450t450 -186q208 0 375 123q164 120 227 309h112q-65 -232 -262 -384q-199 -154 -452 -154q-307 0 -525 217 q-217 218 -217 525z" />
<glyph unicode="d" horiz-adv-x="1443" d="M0 1h105h444q20 -1 42 -1q82 0 175 18q224 43 366 175q201 187 201 523t-201 523q-142 133 -355 175q-88 17 -228 17l-359 1h-189zM105 109v1214h447h2q18 1 38 1q63 0 143 -14q202 -36 324 -150q166 -155 166 -444q0 -288 -166 -443q-175 -164 -505 -164h-449z" />
<glyph unicode="e" horiz-adv-x="1581" d="M0 719q0 -302 213 -516q214 -213 516 -213q248 0 444 152q193 149 258 382h-117q-62 -186 -221 -303q-162 -119 -364 -125q-256 6 -437 186q-180 181 -187 437q0 99 46 215l1276 1q-53 203 -248 356q-198 156 -450 156q-302 0 -516 -213q-213 -214 -213 -515zM196 1032 q41 78 111 144q175 166 422 166q198 0 357 -113q113 -82 175 -197h-1065z" />
<glyph unicode="f" horiz-adv-x="1201" d="M0 0h105v407h986v105h-986v813h985v2h1v105h-1091v-1432z" />
<glyph unicode="g" horiz-adv-x="1687" d="M-3 717q0 308 218 526t527 218q258 0 460 -159q199 -157 261 -398h-115q-60 196 -225 320q-170 127 -381 127q-262 0 -449 -186q-185 -186 -185 -448q0 -263 185 -449q187 -185 449 -185q199 0 366 118q160 115 230 296l234 2v-107h-161q-94 -189 -272 -303 q-182 -117 -397 -117q-309 0 -527 218t-218 527z" />
<glyph unicode="h" horiz-adv-x="1307" d="M0 0h105v408h987v-408h105v1434h-105v-922h-987v922h-105v-1434z" />
<glyph unicode="i" horiz-adv-x="215" d="M0 0h105v1434h-105v-1434z" />
<glyph unicode="j" horiz-adv-x="821" d="M0 0q295 2 503 211q208 210 208 505v716h-113v-716q0 -249 -175 -425t-423 -178v-113z" />
<glyph unicode="k" horiz-adv-x="1286" d="M0 0h104v444l75 -70l1 1l399 -376h156l-482 454l923 981h-147l-925 -984v984h-104v-1434z" />
<glyph unicode="l" horiz-adv-x="1201" d="M0 0h1091v105h-986v1328h-105v-1433z" />
<glyph unicode="m" horiz-adv-x="1416" d="M0 0h109v977l541 -977l546 987v-987h111l-2 1433l-649 -1173l-656 1176v-1436z" />
<glyph unicode="n" horiz-adv-x="1418" d="M0 -3v704q4 304 195 519t459 215q269 0 460 -216q191 -215 194 -520v-702h-101v702q-3 258 -164 440q-162 182 -389 182t-388 -181t-165 -439v-704h-101z" />
<glyph unicode="o" horiz-adv-x="1584" d="M0 720q0 305 216 521t521 216t521 -216t216 -521t-216 -521t-521 -216t-521 216t-216 521zM104 720q0 -262 185 -448q186 -185 448 -185t448 185q185 186 185 448t-185 448q-186 185 -448 185t-448 -185q-185 -186 -185 -448z" />
<glyph unicode="p" horiz-adv-x="1104" d="M0 0h105v397h348q135 0 272 66q269 131 269 452q0 320 -269 451q-137 67 -272 67h-453v-1433zM105 500v829h348q114 0 223 -54q209 -104 209 -360q0 -257 -210 -360q-108 -54 -222 -55h-348z" />
<glyph unicode="q" horiz-adv-x="1609" d="M0 730q0 -304 215 -518q214 -215 518 -215h717v106h-335q71 45 135 109q215 214 215 518q0 303 -215 517q-214 215 -517 215q-304 0 -518 -215q-215 -214 -215 -517zM104 730q0 259 184 444q185 184 445 184t445 -184q184 -185 184 -444q0 -261 -184 -446 q-185 -184 -445 -184t-445 184q-184 185 -184 446z" />
<glyph unicode="r" horiz-adv-x="1106" d="M0 0h105v396h250l408 -396h155l-412 400q173 20 296 106q194 137 194 408q0 320 -268 451q-137 67 -272 67h-456v-1432zM105 500v828h351q115 0 223 -54q209 -104 209 -360t-209 -360q-109 -54 -223 -54h-351z" />
<glyph unicode="s" horiz-adv-x="1143" d="M0 477q3 -208 154 -354q150 -147 362 -147q213 0 365 150q152 148 152 359q0 160 -94 291q-90 129 -238 185q-90 35 -185 35q-75 0 -128 53t-53 126q0 75 53 128t128 53t128 -53q54 -53 54 -128h103q0 118 -83 201q-84 83 -202 83t-201 -83q-84 -83 -84 -201 q0 -117 84 -200q4 -4 15 -14q80 -68 186 -68q171 0 292 -120q121 -119 121 -288q0 -167 -121 -286q-121 -120 -292 -120q-168 0 -289 117q-120 116 -124 281h-103z" />
<glyph unicode="t" horiz-adv-x="1189" d="M0 1327h486v-1327h105v1327h488v105h-1079v-105z" />
<glyph unicode="u" horiz-adv-x="1418" d="M0 733v702h101v-702q3 -258 164 -440q162 -182 389 -182t388 181t165 439v704h101v-704q-4 -304 -195 -519t-459 -215q-269 0 -460 216q-191 215 -194 520z" />
<glyph unicode="v" horiz-adv-x="1598" d="M0 1434h125l627 -1188l624 1188h131l-684 -1301v-1l-71 -132l-67 128z" />
<glyph unicode="w" horiz-adv-x="1960" d="M0 1434l701 -1334l53 -100l52 100l119 226l119 -226l53 -100l52 100l701 1334h-105l-648 -1234l-119 226l-53 100l-52 -100l-119 -226l-649 1234h-105z" />
<glyph unicode="x" horiz-adv-x="1340" d="M0 1434l553 -975l-261 -459h125l198 350l198 -350h124l-260 459l553 975h-125l-490 -865l-491 865h-124z" />
<glyph unicode="y" horiz-adv-x="1315" d="M3 680v756h105l-1 -755v-11q0 -194 142 -389q153 -171 357 -171q193 0 346 152q145 161 149 381v794l107 -1v-1178v-163q-3 -279 -179 -478q-177 -198 -423 -198q-202 0 -364 140q-163 139 -216 361l-3 11h109l2 -7q51 -174 181 -281t291 -107q201 0 349 164 q145 164 148 395l-2 163v42q-78 -135 -210 -217q-133 -81 -285 -81q-248 0 -424 199t-179 479z" />
<glyph unicode="z" horiz-adv-x="1195" d="M0 1327h886l-878 -1327h1075v105h-874l876 1327h-1085v-105z" />
<glyph unicode="{" horiz-adv-x="467" d="M0 718q96 -61 96 -123v-497q12 -50 28 -68q60 -70 233 -110v99q-75 9 -126 39q-36 21 -40 40v497q0 77 -72 123q72 46 72 123v497q4 19 40 40q51 30 126 40v98q-157 -25 -223 -93q-37 -39 -38 -80v-502q0 -62 -96 -123z" />
<glyph unicode="|" horiz-adv-x="215" d="M0 -423h105v2135h-105v-2135z" />
<glyph unicode="}" horiz-adv-x="467" d="M0 19v-99q173 40 233 110q16 18 28 68v497q0 62 96 123q-96 61 -96 123v502q-1 41 -38 80q-66 68 -223 93v-98q75 -10 126 -40q36 -21 41 -40v-497q0 -77 72 -123q-72 -46 -72 -123v-497q-5 -19 -41 -40q-51 -30 -126 -39z" />
<glyph unicode="~" horiz-adv-x="1143" d="M0 594q89 165 283 165q152 0 267 -125q91 -98 206 -98q109 12 155 72l122 1q-89 -165 -283 -165q-152 0 -267 126q-93 97 -204 97q-133 -2 -150 -73h-129z" />
<glyph unicode="&#xa1;" horiz-adv-x="291" d="M0 1365q0 37 26.5 63.5t63.5 26.5q38 0 64.5 -26.5t26.5 -63.5q0 -38 -26.5 -64.5t-64.5 -26.5q-37 0 -63.5 26.5t-26.5 64.5zM41 0v1174h102v-1174h-102z" />
<glyph unicode="&#xa2;" horiz-adv-x="1050" d="M0 683q0 196 139 336q140 139 337 139q77 0 147 -23l154 297h105l-174 -334q32 -18 62 -42q127 -100 170 -271h-98q-39 127 -138 202q-19 15 -40 26l-352 -676q75 -35 164 -35q124 0 224 74q98 72 139 195h99q-46 -168 -172 -265q-128 -99 -290 -99q-113 0 -207 46 l-132 -253h-105l157 302q-26 20 -50 44q-139 140 -139 337zM95 683q0 -158 111 -270q14 -13 28 -25l344 662q-49 13 -102 13q-158 0 -270 -111q-111 -112 -111 -269z" />
<glyph unicode="&#xa3;" horiz-adv-x="1142" d="M0 650h189q35 -53 50 -82q23 -46 9 -86q-8 -21 -77 -140q-91 -156 -123 -342h904v96h-765q66 170 75 186q92 168 98 187q20 62 -24 149q-8 14 -18 32h135v89h-192q-52 83 -66 128q-24 80 11 174q54 146 144 224q90 77 206 76q104 -1 198 -64q94 -62 125 -153 q46 -132 -81 -236h147q87 127 37 272q-43 123 -165 206q-121 83 -260 84q-150 1 -269 -96q-118 -97 -184 -276q-47 -126 -14 -240q12 -41 44 -99h-134v-89z" />
<glyph unicode="&#xa4;" horiz-adv-x="731" d="M0 536l73 -73l89 89q62 -42 142 -42q85 0 151 46l93 -93l73 73l-95 94q42 63 41 143q0 80 -41 143l95 95l-73 73l-94 -94q-65 47 -150 47q-80 0 -142 -42l-89 89l-73 -73l88 -87q-47 -66 -47 -150q0 -85 47 -151zM155 778.5q0 63.5 46 109.5q45 45 109 45t109 -45 q45 -46 45 -109.5t-45 -109.5q-45 -45 -109 -45t-109 45q-46 46 -46 109.5z" />
<glyph unicode="&#xa5;" horiz-adv-x="1248" d="M0 1434l461 -878h-202v-103h256l2 -3v-114h-258v-103h258v-233h105v233h250v103h-250v114l2 3h248v103h-194l460 878h-114l-455 -874l-454 874h-115z" />
<glyph unicode="&#xa6;" />
<glyph unicode="&#xa7;" horiz-adv-x="925" d="M0 349q3 -160 118 -273q116 -113 279 -113q164 0 280 115q117 115 117 277q0 88 -39 168q26 50 39 185q21 227 -213 347q-64 48 -184 48l-23 -1q-44 7 -76 39q-41 40 -41 98q0 57 41 97q41 41 99 41q140 0 140 -138v-1h79v1q0 218 -219 218q-91 0 -155 -64t-64 -154 q0 -91 64 -155q4 -3 12 -10q7 -6 15 -12q-16 -11 -27 -22q-64 -64 -64 -155q0 -90 64 -154q4 -4 12 -11q62 -52 143 -52q131 0 224 -92t93 -221t-93 -221q-93 -91 -224 -91q-130 0 -222 89q-93 90 -96 217h-79zM0 349q3 -160 118 -273q116 -113 279 -113q164 0 280 115 q117 115 117 277q0 88 -39 168q26 50 39 185q21 227 -213 347q-64 48 -184 48l-23 -1q-44 7 -76 39q-41 40 -41 98q0 57 41 97q41 41 99 41q140 0 140 -138v-1h79v1q0 218 -219 218q-91 0 -155 -64t-64 -154q0 -91 64 -155q4 -3 12 -10q7 -6 15 -12q-16 -11 -27 -22 q-64 -64 -64 -155q0 -90 64 -154q4 -4 12 -11q62 -52 143 -52q131 0 224 -92t93 -221t-93 -221q-93 -91 -224 -91q-130 0 -222 89q-93 90 -96 217h-79zM257 885q0 58 41 98q32 32 77 39q11 -1 22 -1q131 0 224 -92q93 -91 93 -221q0 -70 -30 -83q-62 64 -145 95 q-69 27 -142 27q-58 0 -99 41q-41 40 -41 97zM257 885q0 58 41 98q32 32 77 39q11 -1 22 -1q131 0 224 -92q93 -91 93 -221q0 -70 -30 -83q-62 64 -145 95q-69 27 -142 27q-58 0 -99 41q-41 40 -41 97z" />
<glyph unicode="&#xa8;" horiz-adv-x="548" d="M0 1573q0 38 26.5 64.5t64.5 26.5q37 0 63.5 -26.5t26.5 -64.5q0 -37 -26.5 -63.5t-63.5 -26.5q-38 0 -64.5 26.5t-26.5 63.5zM257 1573q0 38 26.5 64.5t64.5 26.5q37 0 63.5 -26.5t26.5 -64.5q0 -37 -26.5 -63.5t-63.5 -26.5q-38 0 -64.5 26.5t-26.5 63.5z" />
<glyph unicode="&#xa9;" horiz-adv-x="1551" d="M0 716q0 299 211 510t509 211q299 0 510 -211t211 -510q0 -298 -211 -509t-510 -211q-298 0 -509 211t-211 509zM112 720q0 -254 180 -434t434 -180q255 0 435 180t180 434q0 255 -180 435t-435 180q-254 0 -434 -180t-180 -435zM272 732q0 190 134 324q135 134 324 134 q159 0 283 -98q123 -96 166 -265h-102q-37 122 -131 193q-95 72 -216 72q-149 0 -255 -105q-105 -106 -105 -255t105 -255q106 -105 255 -105q118 0 213 70q93 68 132 187h102q-46 -166 -167 -259q-124 -96 -280 -96q-189 0 -324 134q-134 134 -134 324z" />
<glyph unicode="&#xaa;" />
<glyph unicode="&#xab;" horiz-adv-x="1172" d="M0 738l682 354v-115q-56 -29 -259 -134q-183 -95 -201 -105q106 -54 460 -237v-116zM380 738l682 354v-115q-56 -29 -259 -134q-183 -95 -201 -105q106 -54 460 -237v-116z" />
<glyph unicode="&#xac;" />
<glyph unicode="&#xad;" horiz-adv-x="885" d="M0 557h775v103h-775v-103z" />
<glyph unicode="&#xae;" horiz-adv-x="1551" d="M0 706q0 299 211 510t509 211q299 0 510 -211t211 -510q0 -298 -211 -509t-510 -211q-298 0 -509 211t-211 509zM112 710q0 -254 180 -434t434 -180q255 0 435 180t180 434q0 255 -180 435t-435 180q-254 0 -434 -180t-180 -435zM462 288v859h279q82 0 164 -40 q164 -80 164 -275q0 -165 -119 -248q-74 -52 -147 -61l243 -235h-133l-236 229h-124v-229h-91zM553 607h188q63 0 123 30q112 56 112 195t-112 195q-60 30 -123 30h-188v-450z" />
<glyph unicode="&#xaf;" horiz-adv-x="1045" d="M0 1330h935v103h-935v-103z" />
<glyph unicode="&#xb0;" horiz-adv-x="448" d="M0 1269q0 70 49.5 119.5t119.5 49.5t119.5 -49.5t49.5 -119.5t-49.5 -119.5t-119.5 -49.5t-119.5 49.5t-49.5 119.5zM110 1273q0 -25 17 -42t42 -17q24 0 41.5 17t17.5 42q0 24 -17.5 41.5t-41.5 17.5q-25 0 -42 -17.5t-17 -41.5z" />
<glyph unicode="&#xb1;" />
<glyph unicode="&#xb2;" />
<glyph unicode="&#xb3;" />
<glyph unicode="&#xb4;" horiz-adv-x="471" d="M2 1525h113l248 409h-120z" />
<glyph unicode="&#xb5;" horiz-adv-x="1412" d="M0 -211h100v556q39 -69 93 -130q190 -215 458 -215q267 0 457 214q190 215 194 518v702h-95v-702q-4 -259 -166 -442q-162 -182 -390 -182t-391 183q-136 155 -160 362v782h-100v-1646z" />
<glyph unicode="&#xb6;" horiz-adv-x="730" d="M0 1170q0 109 101.5 187t245.5 78v-1h273v-90h-74v-935h-102v935h-97v-439h-1v-496h-102v507q-79 18 -142 67q-102 77 -102 187z" />
<glyph unicode="&#xb7;" horiz-adv-x="291" d="M0 695q0 38 26.5 64.5t64.5 26.5q37 0 63.5 -26.5t26.5 -64.5q0 -37 -26.5 -63.5t-63.5 -26.5q-38 0 -64.5 26.5t-26.5 63.5z" />
<glyph unicode="&#xb8;" horiz-adv-x="400" d="M0 1v-153h6q59 0 101.5 -23.5t42.5 -56.5t-42.5 -56.5t-101.5 -23.5h-6v-104q23 -3 44 -3q102 0 174 54t72 130q0 64 -52 114q-52 49 -132 64v58h-106z" />
<glyph unicode="&#xb9;" />
<glyph unicode="&#xba;" />
<glyph unicode="&#xbb;" horiz-adv-x="1172" d="M0 385v116q354 183 460 237q-18 10 -201 105q-203 105 -259 134v115l682 -354zM380 385v116q354 183 460 237q-18 10 -201 105q-203 105 -259 134v115l682 -354z" />
<glyph unicode="&#xbc;" />
<glyph unicode="&#xbd;" />
<glyph unicode="&#xbe;" />
<glyph unicode="&#xbf;" horiz-adv-x="1285" d="M0 546q0 -235 173 -400q172 -164 415 -164t415 165q172 166 172 394v1v2h-111v-2v-1q0 -183 -139 -316q-140 -132 -337 -132q-199 0 -338 133t-139 320t140 320q139 133 337 133h48v190h-108v-83q-223 -21 -375 -181q-153 -162 -153 -379zM495 1417q0 38 26.5 64.5 t64.5 26.5t64.5 -26.5t26.5 -64.5q0 -37 -26.5 -63.5t-64.5 -26.5t-64.5 26.5t-26.5 63.5z" />
<glyph unicode="&#xc0;" horiz-adv-x="1615" d="M0 0h105l213 406h869l213 -406h105l-700 1332l-52 100l-53 -99v-1zM373 511l380 722l379 -722h-759zM465 1705l161 -256h113l-154 256h-120z" />
<glyph unicode="&#xc1;" horiz-adv-x="1615" d="M0 0h105l213 406h869l213 -406h105l-700 1332l-52 100l-53 -99v-1zM373 511l380 722l379 -722h-759zM755 1449h113l161 256h-120z" />
<glyph unicode="&#xc2;" horiz-adv-x="1615" d="M0 0h105l213 406h869l213 -406h105l-700 1332l-52 100l-53 -99v-1zM373 511l380 722l379 -722h-759zM596 1460l157 249l157 -249h-102l-54 97l-56 -97h-102z" />
<glyph unicode="&#xc3;" horiz-adv-x="1615" d="M0 0h105l213 406h869l213 -406h105l-700 1332l-52 100l-53 -99v-1zM373 511l380 722l379 -722h-759zM425 1559q70 129 191 129q94 0 165 -77q47 -51 105 -51q54 6 81 42h107q-69 -129 -190 -129q-95 0 -166 78q-48 50 -104 50q-63 -1 -73 -42h-116z" />
<glyph unicode="&#xc4;" horiz-adv-x="1615" d="M0 0h105l213 406h869l213 -406h105l-700 1332l-52 100l-53 -99v-1zM373 511l380 722l379 -722h-759zM538 1573q0 38 26.5 64.5t64.5 26.5q37 0 63.5 -26.5t26.5 -64.5q0 -37 -26.5 -63.5t-63.5 -26.5q-38 0 -64.5 26.5t-26.5 63.5zM795 1573q0 38 26.5 64.5t64.5 26.5 q37 0 63.5 -26.5t26.5 -64.5q0 -37 -26.5 -63.5t-63.5 -26.5q-38 0 -64.5 26.5t-26.5 63.5z" />
<glyph unicode="&#xc5;" horiz-adv-x="1615" d="M0 0h105l213 406h869l213 -406h105l-700 1332l-52 100l-53 -99v-1zM373 511l380 722l379 -722h-759zM636 1597q0 47 33 80.5t80 33.5t80.5 -33.5t33.5 -80.5t-33.5 -80t-80.5 -33t-80 33t-33 80zM710 1600q0 -17 11.5 -28.5t27.5 -11.5q17 0 28.5 11.5t11.5 28.5 q0 16 -11.5 27.5t-28.5 11.5q-16 0 -27.5 -11.5t-11.5 -27.5z" />
<glyph unicode="&#xc6;" horiz-adv-x="1660" d="M0 0h135l229 408h461l1 -408h724v106h-619v302h615v105h-615v817h619v105l-728 -1v-9zM425 513l399 674v-674h-399z" />
<glyph unicode="&#xc7;" horiz-adv-x="1545" d="M0 719q0 -302 213 -516q208 -207 499 -213v-142h6q59 0 101.5 -23.5t42.5 -56.5t-42.5 -56.5t-101.5 -23.5h-6v-104q23 -3 44 -3q102 0 174 54t72 130q0 64 -52 114q-52 49 -132 64v52q195 23 355 147q193 149 258 382h-117q-62 -186 -221 -303q-162 -119 -364 -119 q-256 0 -437 180q-180 181 -180 437q0 255 180 436q181 180 437 180q206 0 370 -123q161 -122 219 -313h117q-61 239 -256 392q-198 156 -450 156q-302 0 -516 -213q-213 -214 -213 -515z" />
<glyph unicode="&#xc8;" horiz-adv-x="1204" d="M0 0h105h989v105h-989v303h989v105h-989v817h989v105h-989v2h-105v-1437zM415 1705l161 -256h113l-154 256h-120z" />
<glyph unicode="&#xc9;" horiz-adv-x="1204" d="M0 0h105h989v105h-989v303h989v105h-989v817h989v105h-989v2h-105v-1437zM455 1449h113l161 256h-120z" />
<glyph unicode="&#xca;" horiz-adv-x="1204" d="M0 0h105h989v105h-989v303h989v105h-989v817h989v105h-989v2h-105v-1437zM446 1460l157 249l157 -249h-102l-54 97l-56 -97h-102z" />
<glyph unicode="&#xcb;" horiz-adv-x="1204" d="M0 0h105h989v105h-989v303h989v105h-989v817h989v105h-989v2h-105v-1437zM368 1573q0 38 26.5 64.5t64.5 26.5q37 0 63.5 -26.5t26.5 -64.5q0 -37 -26.5 -63.5t-63.5 -26.5q-38 0 -64.5 26.5t-26.5 63.5zM625 1573q0 38 26.5 64.5t64.5 26.5q37 0 63.5 -26.5t26.5 -64.5 q0 -37 -26.5 -63.5t-63.5 -26.5q-38 0 -64.5 26.5t-26.5 63.5z" />
<glyph unicode="&#xcc;" horiz-adv-x="384" d="M0 1743l161 -256h113l-154 256h-120zM163 0h105v1434h-105v-1434z" />
<glyph unicode="&#xcd;" horiz-adv-x="384" d="M0 1497h113l161 256h-120zM4 0h105v1434h-105v-1434z" />
<glyph unicode="&#xce;" horiz-adv-x="423" d="M0 1490l157 249l156 -249h-101l-54 97l-57 -97h-101zM104 0h105v1434h-105v-1434z" />
<glyph unicode="&#xcf;" horiz-adv-x="548" d="M0 1593q0 38 26.5 64.5t64.5 26.5q37 0 63.5 -26.5t26.5 -64.5q0 -37 -26.5 -63.5t-63.5 -26.5q-38 0 -64.5 26.5t-26.5 63.5zM163 0h105v1434h-105v-1434zM257 1593q0 38 26.5 64.5t64.5 26.5q37 0 63.5 -26.5t26.5 -64.5q0 -37 -26.5 -63.5t-63.5 -26.5 q-38 0 -64.5 26.5t-26.5 63.5z" />
<glyph unicode="&#xd0;" horiz-adv-x="1632" d="M0 686h189v-685h549q99 -6 217 17q224 43 366 175q201 187 201 523t-201 523q-142 133 -355 175q-88 17 -228 17l-359 1h-189v-644h-190v-102zM294 109v577h175v102h-175v535h449q76 6 181 -13q202 -36 324 -150q166 -155 166 -444q0 -288 -166 -443q-175 -164 -505 -164 h-449z" />
<glyph unicode="&#xd1;" horiz-adv-x="1406" d="M0 0h105v1180l1086 -1077l104 -103h1v1433h-105v-1182l-1086 1077l-105 105v-1433zM375 1559q70 129 191 129q94 0 165 -77q47 -51 105 -51q54 6 81 42h107q-69 -129 -190 -129q-95 0 -166 78q-48 50 -104 50q-63 -1 -73 -42h-116z" />
<glyph unicode="&#xd2;" horiz-adv-x="1594" d="M0 720q0 -307 217 -525q218 -217 525 -217t525 217q217 218 217 525t-217 525q-218 217 -525 217t-525 -217q-217 -218 -217 -525zM114 720q0 260 184 444t444 184t444 -184t184 -444t-184 -444t-444 -184t-444 184t-184 444zM545 1716l128 -202h113l-121 202h-120z" />
<glyph unicode="&#xd3;" horiz-adv-x="1594" d="M0 720q0 -307 217 -525q218 -217 525 -217t525 217q217 218 217 525t-217 525q-218 217 -525 217t-525 -217q-217 -218 -217 -525zM114 720q0 260 184 444t444 184t444 -184t184 -444t-184 -444t-444 -184t-444 184t-184 444zM687 1514h113l128 202h-120z" />
<glyph unicode="&#xd4;" horiz-adv-x="1594" d="M0 720q0 -307 217 -525q218 -217 525 -217t525 217q217 218 217 525t-217 525q-218 217 -525 217t-525 -217q-217 -218 -217 -525zM114 720q0 260 184 444t444 184t444 -184t184 -444t-184 -444t-444 -184t-444 184t-184 444zM602 1483l142 226l143 -226h-92l-49 88 l-52 -88h-92z" />
<glyph unicode="&#xd5;" horiz-adv-x="1594" d="M0 720q0 -307 217 -525q218 -217 525 -217t525 217q217 218 217 525t-217 525q-218 217 -525 217t-525 -217q-217 -218 -217 -525zM114 720q0 260 184 444t444 184t444 -184t184 -444t-184 -444t-444 -184t-444 184t-184 444zM425 1559q70 129 191 129q94 0 165 -77 q47 -51 105 -51q54 6 81 42h107q-69 -129 -190 -129q-95 0 -166 78q-48 50 -104 50q-63 -1 -73 -42h-116z" />
<glyph unicode="&#xd6;" horiz-adv-x="1594" d="M0 720q0 -307 217 -525q218 -217 525 -217t525 217q217 218 217 525t-217 525q-218 217 -525 217t-525 -217q-217 -218 -217 -525zM114 720q0 260 184 444t444 184t444 -184t184 -444t-184 -444t-444 -184t-444 184t-184 444zM538 1573q0 38 26.5 64.5t64.5 26.5 q37 0 63.5 -26.5t26.5 -64.5q0 -37 -26.5 -63.5t-63.5 -26.5q-38 0 -64.5 26.5t-26.5 63.5zM795 1573q0 38 26.5 64.5t64.5 26.5q37 0 63.5 -26.5t26.5 -64.5q0 -37 -26.5 -63.5t-63.5 -26.5q-38 0 -64.5 26.5t-26.5 63.5z" />
<glyph unicode="&#xd7;" horiz-adv-x="731" d="M0 371l73 -73l237 238l238 -238l73 73l-238 238l238 237l-73 73l-238 -238l-237 238l-73 -73l238 -237z" />
<glyph unicode="&#xd8;" horiz-adv-x="1594" d="M0 720q0 -307 217 -525q218 -217 525 -217t525 217q217 218 217 525t-217 525q-218 217 -525 217t-525 -217q-217 -218 -217 -525zM114 720q0 260 184 444t444 184t444 -184t184 -444t-184 -444t-444 -184t-444 184t-184 444zM236 -107h122l864 1661h-122z" />
<glyph unicode="&#xd9;" horiz-adv-x="1412" d="M0 733q3 -304 193 -518q190 -215 458 -215q267 0 457 214t194 517v701h-95v-701q-4 -259 -166 -441t-390 -182t-391 183q-162 183 -165 442v699h-95v-699zM465 1705l161 -256h113l-154 256h-120z" />
<glyph unicode="&#xda;" horiz-adv-x="1412" d="M0 733q3 -304 193 -518q190 -215 458 -215q267 0 457 214t194 517v701h-95v-701q-4 -259 -166 -441t-390 -182t-391 183q-162 183 -165 442v699h-95v-699zM535 1449h113l161 256h-120z" />
<glyph unicode="&#xdb;" horiz-adv-x="1412" d="M0 733q3 -304 193 -518q190 -215 458 -215q267 0 457 214t194 517v701h-95v-701q-4 -259 -166 -441t-390 -182t-391 183q-162 183 -165 442v699h-95v-699zM506 1460l157 249l157 -249h-102l-54 97l-56 -97h-102z" />
<glyph unicode="&#xdc;" horiz-adv-x="1412" d="M0 733q3 -304 193 -518q190 -215 458 -215q267 0 457 214t194 517v701h-95v-701q-4 -259 -166 -441t-390 -182t-391 183q-162 183 -165 442v699h-95v-699zM448 1573q0 38 26.5 64.5t64.5 26.5q37 0 63.5 -26.5t26.5 -64.5q0 -37 -26.5 -63.5t-63.5 -26.5 q-38 0 -64.5 26.5t-26.5 63.5zM705 1573q0 38 26.5 64.5t64.5 26.5q37 0 63.5 -26.5t26.5 -64.5q0 -37 -26.5 -63.5t-63.5 -26.5q-38 0 -64.5 26.5t-26.5 63.5z" />
<glyph unicode="&#xdd;" horiz-adv-x="1248" d="M0 1434l517 -984v-450h105v450l516 984h-114l-455 -874l-454 874h-115zM495 1449h113l161 256h-120z" />
<glyph unicode="&#xde;" horiz-adv-x="1105" d="M0 2h1v-2h105v187h348q135 0 272 66q269 131 269 452q0 320 -269 451q-137 67 -272 67h-354v212h-100v-1433zM106 290v829h348q114 0 223 -54q209 -104 209 -360q0 -257 -210 -360q-108 -54 -222 -55h-348z" />
<glyph unicode="&#xdf;" horiz-adv-x="1105" d="M0 -2h103v1050q3 78 59 152q108 144 364 144q46 1 107 -12q118 -26 184 -91q75 -75 75 -199q0 -51 -53 -95q-38 -31 -136 -81q-86 -43 -117 -68q-51 -42 -51 -95q0 -49 49 -85q30 -22 112 -56q98 -41 136 -69q54 -39 54 -90q0 -97 -60 -185q-83 -125 -245 -125 q-130 0 -206 40q-101 53 -101 171h-104q0 -150 108 -232q107 -82 303 -82q205 0 320 156q88 120 88 257q0 99 -87 167q-50 39 -185 91t5.5 111t188.5 101q84 74 84 169q0 168 -106 273q-138 136 -364 133q-320 0 -454 -198q-69 -101 -71 -201v-1051z" />
<glyph unicode="&#xe0;" horiz-adv-x="1615" d="M0 720q0 305 216 521t521 216t521 -216t216 -521v-718h-99v346q-47 -79 -117 -149q-216 -216 -521 -216t-521 216t-216 521zM104 720q0 -262 185 -448q186 -185 448 -185t448 185q185 186 185 448t-185 448q-186 185 -448 185t-448 -185q-185 -186 -185 -448zM512 1934 l248 -409h113l-241 409h-120z" />
<glyph unicode="&#xe1;" horiz-adv-x="1615" d="M0 720q0 305 216 521t521 216t521 -216t216 -521v-718h-99v346q-47 -79 -117 -149q-216 -216 -521 -216t-521 216t-216 521zM104 720q0 -262 185 -448q186 -185 448 -185t448 185q185 186 185 448t-185 448q-186 185 -448 185t-448 -185q-185 -186 -185 -448zM632 1525 h113l248 409h-120z" />
<glyph unicode="&#xe2;" horiz-adv-x="1615" d="M0 720q0 305 216 521t521 216t521 -216t216 -521v-718h-99v346q-47 -79 -117 -149q-216 -216 -521 -216t-521 216t-216 521zM104 720q0 -262 185 -448q186 -185 448 -185t448 185q185 186 185 448t-185 448q-186 185 -448 185t-448 -185q-185 -186 -185 -448zM596 1500 l157 249l156 -249h-101l-54 97l-57 -97h-101z" />
<glyph unicode="&#xe3;" horiz-adv-x="1615" d="M0 720q0 305 216 521t521 216t521 -216t216 -521v-718h-99v346q-47 -79 -117 -149q-216 -216 -521 -216t-521 216t-216 521zM104 720q0 -262 185 -448q186 -185 448 -185t448 185q185 186 185 448t-185 448q-186 185 -448 185t-448 -185q-185 -186 -185 -448zM428 1559 q70 129 191 129q94 0 165 -77q47 -51 105 -51q54 6 81 42h107q-69 -129 -190 -129q-95 0 -166 78q-48 50 -104 50q-63 -1 -73 -42h-116z" />
<glyph unicode="&#xe4;" horiz-adv-x="1615" d="M0 720q0 305 216 521t521 216t521 -216t216 -521v-718h-99v346q-47 -79 -117 -149q-216 -216 -521 -216t-521 216t-216 521zM104 720q0 -262 185 -448q186 -185 448 -185t448 185q185 186 185 448t-185 448q-186 185 -448 185t-448 -185q-185 -186 -185 -448zM534 1573 q0 38 26.5 64.5t64.5 26.5q37 0 63.5 -26.5t26.5 -64.5q0 -37 -26.5 -63.5t-63.5 -26.5q-38 0 -64.5 26.5t-26.5 63.5zM791 1573q0 38 26.5 64.5t64.5 26.5q37 0 63.5 -26.5t26.5 -64.5q0 -37 -26.5 -63.5t-63.5 -26.5q-38 0 -64.5 26.5t-26.5 63.5z" />
<glyph unicode="&#xe5;" horiz-adv-x="1615" d="M0 720q0 305 216 521t521 216t521 -216t216 -521v-718h-99v346q-47 -79 -117 -149q-216 -216 -521 -216t-521 216t-216 521zM104 720q0 -262 185 -448q186 -185 448 -185t448 185q185 186 185 448t-185 448q-186 185 -448 185t-448 -185q-185 -186 -185 -448zM639 1607 q0 47 33 80.5t80 33.5t80.5 -33.5t33.5 -80.5t-33.5 -80t-80.5 -33t-80 33t-33 80zM713 1610q0 -17 11.5 -28.5t27.5 -11.5q17 0 28.5 11.5t11.5 28.5q0 16 -11.5 27.5t-28.5 11.5q-16 0 -27.5 -11.5t-11.5 -27.5z" />
<glyph unicode="&#xe6;" horiz-adv-x="2928" d="M0 720q0 -307 217 -525q218 -217 525 -217t525 217q65 65 111 139v-334h103v328q43 -67 103 -127q216 -215 521 -215q251 0 448 153q195 151 261 386h-118q-63 -188 -223 -306q-164 -120 -368 -120q-258 0 -441 182q-168 168 -181 401q1 19 1 38q0 20 -1 40q4 76 25 145 h1192v-1h118q-62 241 -258 395q-200 158 -455 158q-305 0 -521 -215q-104 -104 -158 -229q-54 126 -159 232q-218 217 -525 217t-525 -217q-217 -218 -217 -525zM114 720q0 260 184 444t444 184t444 -184t184 -444t-184 -444t-444 -184t-444 184t-184 444zM1547 1004 q44 85 117 158q183 182 441 182q208 0 374 -124q118 -90 181 -216h-1113z" />
<glyph unicode="&#xe7;" horiz-adv-x="1545" d="M0 719q0 -302 213 -516q208 -207 499 -213v-142h6q59 0 101.5 -23.5t42.5 -56.5t-42.5 -56.5t-101.5 -23.5h-6v-104q23 -3 44 -3q102 0 174 54t72 130q0 64 -52 114q-52 49 -132 64v52q195 23 355 147q193 149 258 382h-117q-62 -186 -221 -303q-162 -119 -364 -119 q-256 0 -437 180q-180 181 -180 437q0 255 180 436q181 180 437 180q206 0 370 -123q161 -122 219 -313h117q-61 239 -256 392q-198 156 -450 156q-302 0 -516 -213q-213 -214 -213 -515z" />
<glyph unicode="&#xe8;" horiz-adv-x="1581" d="M0 719q0 -302 213 -516q214 -213 516 -213q248 0 444 152q193 149 258 382h-117q-62 -186 -221 -303q-162 -119 -364 -125q-256 6 -437 186q-180 181 -187 437q0 99 46 215l1276 1q-53 203 -248 356q-198 156 -450 156q-302 0 -516 -213q-213 -214 -213 -515zM196 1032 q41 78 111 144q175 166 422 166q198 0 357 -113q113 -82 175 -197h-1065zM475 1934l248 -409h113l-241 409h-120z" />
<glyph unicode="&#xe9;" horiz-adv-x="1581" d="M0 719q0 -302 213 -516q214 -213 516 -213q248 0 444 152q193 149 258 382h-117q-62 -186 -221 -303q-162 -119 -364 -125q-256 6 -437 186q-180 181 -187 437q0 99 46 215l1276 1q-53 203 -248 356q-198 156 -450 156q-302 0 -516 -213q-213 -214 -213 -515zM196 1032 q41 78 111 144q175 166 422 166q198 0 357 -113q113 -82 175 -197h-1065zM595 1525h113l248 409h-120z" />
<glyph unicode="&#xea;" horiz-adv-x="1581" d="M0 719q0 -302 213 -516q214 -213 516 -213q248 0 444 152q193 149 258 382h-117q-62 -186 -221 -303q-162 -119 -364 -125q-256 6 -437 186q-180 181 -187 437q0 99 46 215l1276 1q-53 203 -248 356q-198 156 -450 156q-302 0 -516 -213q-213 -214 -213 -515zM196 1032 q41 78 111 144q175 166 422 166q198 0 357 -113q113 -82 175 -197h-1065zM559 1500l157 249l156 -249h-101l-54 97l-57 -97h-101z" />
<glyph unicode="&#xeb;" horiz-adv-x="1581" d="M0 719q0 -302 213 -516q214 -213 516 -213q248 0 444 152q193 149 258 382h-117q-62 -186 -221 -303q-162 -119 -364 -125q-256 6 -437 186q-180 181 -187 437q0 99 46 215l1276 1q-53 203 -248 356q-198 156 -450 156q-302 0 -516 -213q-213 -214 -213 -515zM196 1032 q41 78 111 144q175 166 422 166q198 0 357 -113q113 -82 175 -197h-1065zM497 1573q0 38 26.5 64.5t64.5 26.5q37 0 63.5 -26.5t26.5 -64.5q0 -37 -26.5 -63.5t-63.5 -26.5q-38 0 -64.5 26.5t-26.5 63.5zM754 1573q0 38 26.5 64.5t64.5 26.5q37 0 63.5 -26.5t26.5 -64.5 q0 -37 -26.5 -63.5t-63.5 -26.5q-38 0 -64.5 26.5t-26.5 63.5z" />
<glyph unicode="&#xec;" horiz-adv-x="384" d="M0 1713l161 -256h113l-154 256h-120zM163 0h105v1434h-105v-1434z" />
<glyph unicode="&#xed;" horiz-adv-x="215" d="M0 0h105v1434h-105v-1434zM2 1525h113l248 409h-120z" />
<glyph unicode="&#xee;" horiz-adv-x="340" d="M0 1520l157 249l156 -249h-101l-54 97l-57 -97h-101zM104 0h105v1434h-105v-1434z" />
<glyph unicode="&#xef;" horiz-adv-x="395" d="M0 1613q0 38 26.5 64.5t64.5 26.5q37 0 63.5 -26.5t26.5 -64.5q0 -37 -26.5 -63.5t-63.5 -26.5q-38 0 -64.5 26.5t-26.5 63.5zM162 0h105v1434h-105v-1434zM257 1613q0 38 26.5 64.5t64.5 26.5q37 0 63.5 -26.5t26.5 -64.5q0 -37 -26.5 -63.5t-63.5 -26.5 q-38 0 -64.5 26.5t-26.5 63.5z" />
<glyph unicode="&#xf0;" horiz-adv-x="1603" d="M16 862q-61 -298 107 -552q167 -253 465 -314t551 107q254 168 315 465q39 193 -23 378q-60 180 -199 308q-243 267 -700 412l26 103l-92 22l-25 -98q-54 14 -104 26l-24 -109q51 -11 102 -25l-21 -90l91 -22l21 85q140 -45 269 -110q-270 15 -486 -150 q-218 -167 -273 -436zM129 839q51 251 265 392q213 141 464 90t392 -265t90 -465q-51 -250 -264 -392q-214 -141 -465 -90q-251 52 -392 265q-141 214 -90 465z" />
<glyph unicode="&#xf1;" horiz-adv-x="1443" d="M0 0h98v718q3 264 169 451q166 186 399 186q234 0 400 -187q167 -187 169 -452h1v-716h97v716q-3 311 -198 530q-195 220 -469 220q-273 0 -468 -219q-194 -219 -198 -529v-718zM335 1619q70 129 191 129q94 0 165 -77q47 -51 105 -51q54 6 81 42h107q-69 -129 -190 -129 q-95 0 -166 78q-48 50 -104 50q-63 -1 -73 -42h-116z" />
<glyph unicode="&#xf2;" horiz-adv-x="1584" d="M0 720q0 305 216 521t521 216t521 -216t216 -521t-216 -521t-521 -216t-521 216t-216 521zM104 720q0 -262 185 -448q186 -185 448 -185t448 185q185 186 185 448t-185 448q-186 185 -448 185t-448 -185q-185 -186 -185 -448zM496 1934l248 -409h113l-241 409h-120z" />
<glyph unicode="&#xf3;" horiz-adv-x="1584" d="M0 720q0 305 216 521t521 216t521 -216t216 -521t-216 -521t-521 -216t-521 216t-216 521zM104 720q0 -262 185 -448q186 -185 448 -185t448 185q185 186 185 448t-185 448q-186 185 -448 185t-448 -185q-185 -186 -185 -448zM617 1525h113l248 409h-120z" />
<glyph unicode="&#xf4;" horiz-adv-x="1584" d="M0 720q0 305 216 521t521 216t521 -216t216 -521t-216 -521t-521 -216t-521 216t-216 521zM104 720q0 -262 185 -448q186 -185 448 -185t448 185q185 186 185 448t-185 448q-186 185 -448 185t-448 -185q-185 -186 -185 -448zM581 1520l157 249l156 -249h-101l-54 97 l-57 -97h-101z" />
<glyph unicode="&#xf5;" horiz-adv-x="1584" d="M0 720q0 305 216 521t521 216t521 -216t216 -521t-216 -521t-521 -216t-521 216t-216 521zM104 720q0 -262 185 -448q186 -185 448 -185t448 185q185 186 185 448t-185 448q-186 185 -448 185t-448 -185q-185 -186 -185 -448zM413 1589q70 129 191 129q94 0 165 -77 q47 -51 105 -51q54 6 81 42h107q-69 -129 -190 -129q-95 0 -166 78q-48 50 -104 50q-63 -1 -73 -42h-116z" />
<glyph unicode="&#xf6;" horiz-adv-x="1584" d="M0 720q0 305 216 521t521 216t521 -216t216 -521t-216 -521t-521 -216t-521 216t-216 521zM104 720q0 -262 185 -448q186 -185 448 -185t448 185q185 186 185 448t-185 448q-186 185 -448 185t-448 -185q-185 -186 -185 -448zM518 1593q0 38 26.5 64.5t64.5 26.5 q37 0 63.5 -26.5t26.5 -64.5q0 -37 -26.5 -63.5t-63.5 -26.5q-38 0 -64.5 26.5t-26.5 63.5zM775 1593q0 38 26.5 64.5t64.5 26.5q37 0 63.5 -26.5t26.5 -64.5q0 -37 -26.5 -63.5t-63.5 -26.5q-38 0 -64.5 26.5t-26.5 63.5z" />
<glyph unicode="&#xf7;" horiz-adv-x="885" d="M0 557h775v103h-775v-103zM305 804q0 38 26.5 64.5t64.5 26.5q37 0 63.5 -26.5t26.5 -64.5q0 -37 -26.5 -63.5t-63.5 -26.5q-38 0 -64.5 26.5t-26.5 63.5zM308 408q0 38 26.5 64.5t64.5 26.5q37 0 63.5 -26.5t26.5 -64.5q0 -37 -26.5 -63.5t-63.5 -26.5q-38 0 -64.5 26.5 t-26.5 63.5z" />
<glyph unicode="&#xf8;" horiz-adv-x="1594" d="M0 720q0 -307 217 -525q218 -217 525 -217t525 217q217 218 217 525t-217 525q-218 217 -525 217t-525 -217q-217 -218 -217 -525zM114 720q0 260 184 444t444 184t444 -184t184 -444t-184 -444t-444 -184t-444 184t-184 444zM236 -107h122l864 1661h-122z" />
<glyph unicode="&#xf9;" horiz-adv-x="1412" d="M0 733q3 -304 193 -518q190 -215 458 -215q267 0 457 214t194 517v701h-95v-701q-4 -259 -166 -441t-390 -182t-391 183q-162 183 -165 442v699h-95v-699zM465 1705l161 -256h113l-154 256h-120z" />
<glyph unicode="&#xfa;" horiz-adv-x="1412" d="M0 733q3 -304 193 -518q190 -215 458 -215q267 0 457 214t194 517v701h-95v-701q-4 -259 -166 -441t-390 -182t-391 183q-162 183 -165 442v699h-95v-699zM545 1449h113l161 256h-120z" />
<glyph unicode="&#xfb;" horiz-adv-x="1412" d="M0 733v702h101v-702q3 -258 164 -440q162 -182 389 -182t388 181t165 439v704h101v-704q-4 -304 -195 -519t-459 -215q-269 0 -460 216q-191 215 -194 520zM498 1500l157 249l156 -249h-101l-54 97l-57 -97h-101z" />
<glyph unicode="&#xfc;" horiz-adv-x="1412" d="M0 733q3 -304 193 -518q190 -215 458 -215q267 0 457 214t194 517v701h-95v-701q-4 -259 -166 -441t-390 -182t-391 183q-162 183 -165 442v699h-95v-699zM448 1573q0 38 26.5 64.5t64.5 26.5q37 0 63.5 -26.5t26.5 -64.5q0 -37 -26.5 -63.5t-63.5 -26.5 q-38 0 -64.5 26.5t-26.5 63.5zM705 1573q0 38 26.5 64.5t64.5 26.5q37 0 63.5 -26.5t26.5 -64.5q0 -37 -26.5 -63.5t-63.5 -26.5q-38 0 -64.5 26.5t-26.5 63.5z" />
<glyph unicode="&#xfd;" horiz-adv-x="1248" d="M0 1434l517 -984v-450h105v450l516 984h-114l-455 -874l-454 874h-115zM495 1449h113l161 256h-120z" />
<glyph unicode="&#xfe;" horiz-adv-x="1104" d="M0 0h105v397h348q135 0 272 66q269 131 269 452q0 320 -269 451q-137 67 -272 67h-453v-1433zM105 500v829h348q114 0 223 -54q209 -104 209 -360q0 -257 -210 -360q-108 -54 -222 -55h-348z" />
<glyph unicode="&#xff;" horiz-adv-x="1437" d="M0 723q3 -308 197 -527t467 -219q167 0 313 89q146 90 238 249v-59l2 -180q-3 -257 -165 -439q-164 -183 -388 -183q-179 0 -324 119q-145 120 -202 313l-1 5h-114l2 -8q59 -244 238 -397q179 -154 401 -154q271 0 465 218q194 219 198 526v180v1179l-8 1h-104v-753 q-5 -245 -166 -424q-170 -170 -385 -170q-227 0 -398 191q-162 222 -158 445l1 710h-109v-712zM448 1573q0 38 26.5 64.5t64.5 26.5q37 0 63.5 -26.5t26.5 -64.5q0 -37 -26.5 -63.5t-63.5 -26.5q-38 0 -64.5 26.5t-26.5 63.5zM705 1573q0 38 26.5 64.5t64.5 26.5 q37 0 63.5 -26.5t26.5 -64.5q0 -37 -26.5 -63.5t-63.5 -26.5q-38 0 -64.5 26.5t-26.5 63.5z" />
<glyph unicode="&#x152;" horiz-adv-x="1897" d="M0 720q0 -307 217 -525q217 -216 521 -217h1049v114h-647q67 43 127 103q101 102 155 223h365v114h-325q22 89 22 188q0 307 -217 525q-61 60 -128 104h648v114h-1036v-1h-9q-307 0 -525 -217q-217 -218 -217 -525zM114 720q0 260 184 444t444 184t444 -184t184 -444 t-184 -444t-444 -184t-444 184t-184 444z" />
<glyph unicode="&#x153;" horiz-adv-x="2928" d="M0 720q0 -307 217 -525q218 -217 525 -217t525 217q106 106 160 234q54 -124 157 -228q216 -215 521 -215q251 0 448 153q195 151 261 386h-118q-63 -188 -223 -306q-164 -120 -368 -120q-258 0 -441 182q-168 168 -181 401q1 19 1 38q0 20 -1 40q4 76 25 145h1192v-1 h118q-62 241 -258 395q-200 158 -455 158q-305 0 -521 -215q-104 -104 -158 -229q-54 126 -159 232q-218 217 -525 217t-525 -217q-217 -218 -217 -525zM114 720q0 260 184 444t444 184t444 -184t184 -444t-184 -444t-444 -184t-444 184t-184 444zM1547 1004q44 85 117 158 q183 182 441 182q208 0 374 -124q118 -90 181 -216h-1113z" />
<glyph unicode="&#x2c6;" horiz-adv-x="423" d="M0 1500l157 249l156 -249h-101l-54 97l-57 -97h-101z" />
<glyph unicode="&#x2dc;" horiz-adv-x="759" d="M0 1559q70 129 191 129q94 0 165 -77q47 -51 105 -51q54 6 81 42h107q-69 -129 -190 -129q-95 0 -166 78q-48 50 -104 50q-63 -1 -73 -42h-116z" />
<glyph unicode="&#x2000;" horiz-adv-x="967" />
<glyph unicode="&#x2001;" horiz-adv-x="1934" />
<glyph unicode="&#x2002;" horiz-adv-x="967" />
<glyph unicode="&#x2003;" horiz-adv-x="1934" />
<glyph unicode="&#x2004;" horiz-adv-x="644" />
<glyph unicode="&#x2005;" horiz-adv-x="483" />
<glyph unicode="&#x2006;" horiz-adv-x="322" />
<glyph unicode="&#x2007;" horiz-adv-x="322" />
<glyph unicode="&#x2008;" horiz-adv-x="241" />
<glyph unicode="&#x2009;" horiz-adv-x="386" />
<glyph unicode="&#x200a;" horiz-adv-x="107" />
<glyph unicode="&#x2010;" horiz-adv-x="885" d="M0 557h775v103h-775v-103z" />
<glyph unicode="&#x2011;" horiz-adv-x="885" d="M0 557h775v103h-775v-103z" />
<glyph unicode="&#x2012;" horiz-adv-x="885" d="M0 557h775v103h-775v-103z" />
<glyph unicode="&#x2013;" />
<glyph unicode="&#x2014;" />
<glyph unicode="&#x2018;" horiz-adv-x="384" d="M0 1436l161 -256h113l-154 256h-120z" />
<glyph unicode="&#x2019;" horiz-adv-x="384" d="M0 1180h113l161 256h-120z" />
<glyph unicode="&#x201a;" horiz-adv-x="384" d="M0 -98h113l161 256h-120z" />
<glyph unicode="&#x201c;" horiz-adv-x="434" d="M0 991h108l1 442h-109v-442zM215 991h108l1 442h-109v-442z" />
<glyph unicode="&#x201d;" horiz-adv-x="434" d="M0 991h108l1 442h-109v-442zM215 991h108l1 442h-109v-442z" />
<glyph unicode="&#x201e;" horiz-adv-x="434" d="M0 154v-442h108l1 442h-109zM215 154v-442h108l1 442h-109z" />
<glyph unicode="&#x2022;" horiz-adv-x="406" d="M0 758q0 61 43.5 104.5t104.5 43.5t104.5 -43.5t43.5 -104.5t-43.5 -104.5t-104.5 -43.5t-104.5 43.5t-43.5 104.5z" />
<glyph unicode="&#x2026;" />
<glyph unicode="&#x202f;" horiz-adv-x="386" />
<glyph unicode="&#x2039;" horiz-adv-x="792" d="M0 738l682 354v-115q-56 -29 -259 -134q-183 -95 -201 -105q106 -54 460 -237v-116z" />
<glyph unicode="&#x203a;" horiz-adv-x="792" d="M0 385v116q354 183 460 237q-18 10 -201 105q-203 105 -259 134v115l682 -354z" />
<glyph unicode="&#x205f;" horiz-adv-x="483" />
<glyph unicode="&#x20ac;" horiz-adv-x="1843" d="M0 528h322q47 -182 189 -325q214 -213 516 -213q248 0 444 152q193 149 258 382h-117q-62 -186 -221 -303q-162 -119 -364 -119q-256 0 -437 180q-109 109 -152 246h317l30 102h-369q-6 43 -6 89q0 40 5 79h340l30 102h-350q43 142 155 255q181 180 437 180 q206 0 370 -123q161 -122 219 -313h117q-61 239 -256 392q-198 156 -450 156q-302 0 -516 -213q-146 -147 -192 -334h-289l-30 -102h302q-4 -39 -4 -79q0 -45 5 -89h-273z" />
<glyph unicode="&#x2122;" horiz-adv-x="1248" d="M0 593h217v-593h47v593h218v47h-482v-47zM554 0h49v455l242 -455l3 5v-1l241 455l-1 -459h50v641l-290 -547l-294 548v-642z" />
<glyph unicode="&#x25fc;" horiz-adv-x="1435" d="M0 0v1435h1435v-1435h-1435z" />
</font>
</defs>
</svg>
