<?xml version="1.0" standalone="no"?>
<!DOCTYPE svg PUBLIC "-//W3C//DTD SVG 1.1//EN" "http://www.w3.org/Graphics/SVG/1.1/DTD/svg11.dtd" >
<svg xmlns="http://www.w3.org/2000/svg" xmlns:xlink="http://www.w3.org/1999/xlink" version="1.1">
<metadata></metadata>
<defs>
<font id="vonique_64bold" horiz-adv-x="110" >
<font-face units-per-em="2048" ascent="1638" descent="-410" />
<missing-glyph horiz-adv-x="508" />
<glyph horiz-adv-x="0" />
<glyph unicode="&#xd;" horiz-adv-x="508" />
<glyph unicode=" "  horiz-adv-x="508" />
<glyph unicode="&#x09;" horiz-adv-x="508" />
<glyph unicode="&#xa0;" horiz-adv-x="508" />
<glyph unicode="!" horiz-adv-x="291" d="M0 74q0 48 34 82t82 34q47 0 81 -34t34 -82q0 -47 -34 -81t-81 -34q-48 0 -82 34t-34 81zM38 240v1224h152v-1224h-152z" />
<glyph unicode="&#x22;" horiz-adv-x="434" d="M0 966v492h159l-1 -492h-158zM215 966v492h159l-1 -492h-158z" />
<glyph unicode="#" horiz-adv-x="1110" d="M0 484v149h214l61 253h-183v149h218l87 359h154l-86 -359h244l87 359h154l-86 -359h186v-149h-222l-61 -253h191v-149h-227l-110 -459h-155l111 459h-245l-110 -459h-155l111 459h-178zM368 633h245l60 253h-244z" />
<glyph unicode="$" horiz-adv-x="1104" d="M0 512h149q4 -173 112 -278q93 -89 187 -99v735q-58 9 -121 64q-11 9 -16 14q-89 88 -89 211t89 211q67 67 137 79v110h159v-113q63 -13 127 -76q87 -88 87 -236h-149q0 87 -44 130q-24 24 -21 23v-283q41 -5 102 -28q149 -56 241 -187q94 -132 94 -294q0 -214 -153 -364 q-130 -128 -284 -145v-102h-159v100q-159 14 -292 144q-152 148 -156 384zM372 1159q0 -61 44 -104q28 -29 32 -30v269q-4 -1 -32 -30q-44 -43 -44 -105zM607 137q90 13 179 100q108 107 108 258q0 152 -108 259q-89 87 -179 100v-717z" />
<glyph unicode="%" horiz-adv-x="1449" d="M0 1038q0 140 99 238.5t238 98.5q140 0 239 -98.5t99 -238.5q0 -139 -99 -238.5t-239 -99.5q-139 0 -238 99.5t-99 238.5zM140 1041q0 -83 58.5 -141.5t141.5 -58.5t142 58.5t59 141.5q0 84 -59 142t-142 58t-141.5 -58t-58.5 -142zM306 150l597 1141h162l-596 -1141 h-163zM714 435q0 139 99 238t238 99q140 0 239 -99t99 -238t-99 -238.5t-239 -99.5q-139 0 -238 99.5t-99 238.5zM854 438q0 -83 58.5 -142t141.5 -59q84 0 142.5 59t58.5 142t-58.5 141.5t-142.5 58.5q-83 0 -141.5 -58.5t-58.5 -141.5z" />
<glyph unicode="&#x26;" horiz-adv-x="1407" d="M0 529q0 158 81 295q78 131 190 197q-26 50 -26 131q0 138 97 237q98 98 235 98t235 -98q97 -99 97 -237q0 -46 -18 -109h-186q35 71 35 109q0 68 -48 116q-47 48 -115 48q-67 0 -115 -48t-48 -116q0 -4 2 -15q19 -115 230 -160q-160 -32 -205.5 -57.5t-57.5 -32.5 q-10 -5 -23 -12q-86 -56 -138 -145q-53 -94 -53 -201q0 -169 120 -289q119 -120 288 -120t288 120q120 120 120 289q0 48 -7 77h-24h-120q-144 0 -228 -115h-189l43 71q133 206 374 206h120q131 0 224 109h153h40l-50 -74q-65 -109 -179 -156q12 -49 12 -118 q0 -240 -169 -411q-169 -169 -408 -169t-408 169q-169 171 -169 411zM340 1241z" />
<glyph unicode="'" horiz-adv-x="471" d="M2 1500l270 459h179l-278 -459h-171z" />
<glyph unicode="(" horiz-adv-x="525" d="M41 536q-41 226 37 460q91 271 291 472l107 -106q-184 -185 -260 -425q-147 -459 260 -866l-107 -106q-273 274 -328 571z" />
<glyph unicode=")" horiz-adv-x="525" d="M0 71q407 407 261 866q-77 240 -261 425l106 106q201 -200 292 -472q78 -234 37 -460q-54 -297 -329 -571z" />
<glyph unicode="*" horiz-adv-x="818" d="M0 1003v152h195l-137 138l107 107l138 -137v195h152v-195l138 137l107 -107l-137 -138h195v-152h-195l137 -138l-107 -107l-138 137v-195h-152v195l-138 -138l-107 108l137 138h-195z" />
<glyph unicode="+" horiz-adv-x="885" d="M0 532v153h336v336h153v-336h336v-153h-336v-336h-153v336h-336z" />
<glyph unicode="," horiz-adv-x="384" d="M0 -123l184 306h179l-192 -306h-171z" />
<glyph unicode="-" horiz-adv-x="885" d="M0 532v153h825v-153h-825z" />
<glyph unicode="." horiz-adv-x="291" d="M0 74q0 48 34 82t82 34q47 0 81 -34t34 -82q0 -47 -34 -81t-81 -34q-48 0 -82 34t-34 81z" />
<glyph unicode="/" horiz-adv-x="960" d="M0 -25l771 1482h171l-771 -1482h-171z" />
<glyph unicode="0" horiz-adv-x="1282" d="M0 719q0 315 177 538q180 226 434 226q255 0 434 -226q177 -223 177 -538t-177 -538q-179 -226 -434 -226q-254 0 -434 226q-177 223 -177 538zM159 719q0 -253 135 -431q132 -174 317 -174q186 0 318 174q135 178 135 431t-135 431q-132 174 -318 174q-185 0 -317 -174 q-135 -178 -135 -431z" />
<glyph unicode="1" horiz-adv-x="312" d="M0 1302v155h250v-2h2v-1480h-154v1327h-98z" />
<glyph unicode="2" horiz-adv-x="981" d="M0 -25l654 1137q2 2 1 1q10 25 10 51q0 62 -43 105q-44 44 -107 44q-102 -13 -126.5 -91t8.5 -155h-178q-16 59 -16 98q0 8 2 23q9 120 98 203q91 83 212 83q129 0 221 -91q83 -74 90.5 -173t-47.5 -188l-506 -893h666v-154h-939z" />
<glyph unicode="3" horiz-adv-x="1145" d="M0 444h163q29 -152 135 -239q106 -88 245 -88q160 0 272 111q112 110 112 266q0 118 -70 216q-71 110 -215 185l-99 67l97 103q56 72 56 117q0 63 -45 106q-44 45 -108 45q-7 0 -20 -2q-5 0 -14 -2q-5 -2 -12 -4q-2 0 -4 -1q-131 -52 -94 -189q3 -9 24 -52h-178 q-16 60 -16 99q0 7 1 23q9 122 99 205q90 85 214 85q130 0 223 -91q92 -93 92 -222q0 -136 -62 -199q55 -32 133 -108q160 -157 160 -381q0 -223 -160 -382q-160 -157 -386 -157q-203 0 -357 133q-152 131 -186 356z" />
<glyph unicode="4" horiz-adv-x="1182" d="M0 384l3 2h16l967 1113v-951h177v-164h-177v-409h-175v409h-811zM388 548h420l1 492z" />
<glyph unicode="5" horiz-adv-x="1236" d="M0 436h162q51 -143 164 -222q116 -81 260 -81q183 0 313 123q127 122 127 293q0 172 -128 294q-130 122 -337 122v1h-297v28v435v28h506v-154h-352v-180h145q271 0 445 -168q176 -168 176 -406q0 -239 -177 -407q-174 -167 -421 -167q-206 0 -367 122q-159 120 -219 339z " />
<glyph unicode="6" horiz-adv-x="1346" d="M11 609q12 261 206 438l450 412h228l-257 -235q42 8 197 -41q160 -50 275 -175q177 -194 165 -455t-205 -438t-455 -166q-261 11 -438 205q-177 193 -166 455zM178 596q-8 -195 124 -339q131 -143 325 -152q196 -8 338 123q144 131 152 326q10 195 -122 338 q-132 144 -325 152q-196 9 -340 -122q-142 -132 -152 -326z" />
<glyph unicode="7" horiz-adv-x="1168" d="M0 -25l846 1327h-844v155h1129l-93 -144l-854 -1338h-184z" />
<glyph unicode="8" horiz-adv-x="1148" d="M0 484q0 222 159 380q80 78 147 104q-75 67 -75 207q0 129 91 221q93 91 222 91q130 0 222 -91q92 -92 92 -221q0 -140 -76 -207q115 -44 209 -179q97 -137 97 -305q0 -222 -159 -380q-160 -158 -385 -158t-385 158q-159 158 -159 380zM162 484q0 -156 112 -265 q112 -111 270 -111q159 0 270 111q113 110 113 265t-113 265q-111 110 -270 110t-270 -110q-112 -110 -112 -265zM392 1175q0 -62 45 -106q44 -44 107 -44t107 44q45 44 45 106q0 63 -45 106q-44 44 -107 44t-107 -44q-45 -43 -45 -106z" />
<glyph unicode="9" horiz-adv-x="1346" d="M5 881q13 262 206 439t455 165q261 -11 438 -205q177 -192 165 -455q-11 -261 -205 -438l-450 -412h-228l257 235q-42 -7 -197 41q-160 50 -275 175q-177 194 -166 455zM163 881q-9 -196 123 -339t325 -152q196 -9 339 123t152 325q9 195 -123 339q-131 143 -325 152 q-196 9 -339 -123q-143 -131 -152 -325z" />
<glyph unicode=":" horiz-adv-x="291" d="M0 484q0 48 34 82t82 34q47 0 81 -34t34 -82q0 -47 -34 -81t-81 -34q-48 0 -82 34t-34 81zM0 949q0 48 34 82t82 34q47 0 81 -34t34 -82q0 -47 -34 -81t-81 -34q-48 0 -82 34t-34 81z" />
<glyph unicode=";" horiz-adv-x="396" d="M0 284l184 306h179l-192 -306h-171zM123 949q0 48 34 82t82 34q49 0 82.5 -34t33.5 -82q0 -47 -33.5 -81t-82.5 -34q-48 0 -82 34t-34 81z" />
<glyph unicode="&#x3c;" horiz-adv-x="1084" d="M0 724l1053 546v-181q-86 -45 -398 -206q-281 -146 -305 -159q159 -82 703 -364v-181z" />
<glyph unicode="=" horiz-adv-x="885" d="M0 382v153h825v-153h-825zM0 662v153h825v-153h-825z" />
<glyph unicode="&#x3e;" horiz-adv-x="1084" d="M0 179v181q544 282 703 364q-25 13 -305 159q-313 161 -398 206v181l1053 -546z" />
<glyph unicode="?" horiz-adv-x="1285" d="M0 880v27v1q0 239 180 412q179 172 432 172t432 -171q181 -172 181 -418q0 -227 -160 -396q-158 -167 -368 -187v-85h-158v240h48q213 0 345 126t132 302t-131 302q-132 126 -321 126q-187 0 -320 -125q-131 -126 -131 -326h-161zM502 74q0 48 34 82t82 34t82 -34t34 -82 q0 -47 -34 -81t-82 -34t-82 34t-34 81z" />
<glyph unicode="@" horiz-adv-x="1620" d="M0 702q0 322 228 551q229 228 551 228q323 0 552 -228q228 -229 228 -551v-5q1 -270 -108 -380q-55 -54 -131 -54q-41 2 -86 28q-86 48 -110 111q-33 -52 -130 -106q-99 -56 -215 -56q-181 0 -311 129q-128 129 -128 311q0 181 128 311q130 128 311 128q212 0 338 -158 h102v-281q0 -157 53 -227q27 -35 55 -40q8 0 17 10q65 64 65 273v6q0 260 -185 444q-184 185 -445 185q-260 0 -444 -185q-185 -184 -185 -444q0 -202 117 -366q118 -165 332 -238l-48 -142q-261 89 -405 292q-146 204 -146 454zM490 680q0 -121 85 -205q84 -85 204 -85 q121 0 205 85q85 84 85 205q0 120 -85 204q-84 86 -205 86q-120 0 -204 -86q-85 -84 -85 -204z" />
<glyph unicode="A" horiz-adv-x="1601" d="M0 -27l700 1333v1l98 181l90 -171l705 -1344h-184l-612 1159l-608 -1159h-189z" />
<glyph unicode="B" horiz-adv-x="1213" d="M0 -25v1485h624q112 0 201 -56q124 -75 124 -224q0 -141 -74 -190q278 -112 278 -473q0 -336 -282 -472q-143 -70 -283 -70h-484h-104zM154 128h434q109 1 211 51q196 98 196 338t-196 338q-103 51 -211 51h-434v-778zM154 1060h471q101 0 141 54q23 30 24 66 q0 73 -73 104q-43 18 -93 18h-470v-242z" />
<glyph unicode="C" horiz-adv-x="1536" d="M-3 719q0 316 224 542q226 224 543 224q266 0 473 -164q206 -161 277 -439h-163q-62 204 -220 325q-162 122 -367 122q-254 0 -432 -179q-179 -178 -179 -431q0 -254 179 -432q178 -179 432 -179q200 0 360 118q158 115 224 314h163q-76 -272 -280 -429 q-205 -159 -467 -159q-317 0 -543 224q-224 226 -224 543z" />
<glyph unicode="D" horiz-adv-x="1443" d="M0 -24l1 1481h214l359 -1q142 0 233 -17q220 -44 367 -182q209 -194 209 -541t-209 -541q-147 -137 -378 -182q-96 -18 -180 -18q-22 0 -43 1h-468h-105zM155 134h424q320 0 488 157q158 148 158 425q0 278 -158 426q-117 109 -311 143q-78 14 -139 14q-19 0 -37 -1h-3 h-422v-1164z" />
<glyph unicode="E" horiz-adv-x="1206" d="M0 -25v1485h1146v-157h-987v-1172h987v-156h-1146zM274 383v155h868v-155h-868z" />
<glyph unicode="F" horiz-adv-x="1206" d="M0 -25v1485h1146v-157h-987v-1327zM274 383v155h868v-155h-868z" />
<glyph unicode="G" horiz-adv-x="1575" d="M0 721q0 318 225 544q226 225 544 225q267 0 475 -164q206 -163 278 -446h-168q-64 206 -222 325q-160 121 -363 121q-251 0 -427 -177q-178 -177 -178 -428t178 -427q176 -178 427 -178q159 0 299 82q135 78 194 173h-768v158h1021q-86 -270 -286 -422 q-206 -155 -460 -155q-318 0 -544 225q-225 226 -225 544z" />
<glyph unicode="H" horiz-adv-x="1307" d="M0 -25v1484h155v-922h937v922h155v-1484h-155v408h-937v-408h-155z" />
<glyph unicode="I" horiz-adv-x="215" d="M0 -25v1484h155v-1484h-155z" />
<glyph unicode="J" horiz-adv-x="1488" d="M0 -435h166q62 -145 210 -253q150 -111 337 -111q233 0 399 166q166 164 166 400v1692h160v-1692q0 -301 -213 -515q-212 -211 -512 -211q-250 0 -447 152q-192 150 -266 372z" />
<glyph unicode="K" horiz-adv-x="1476" d="M0 -30v1488h155v-1488h-155zM267 520l945 942h220l-947 -942l966 -966h-218z" />
<glyph unicode="L" horiz-adv-x="1201" d="M0 -25v1483h155v-1328h986v-155h-1141z" />
<glyph unicode="M" horiz-adv-x="1416" d="M0 -25v1557l681 -1221l674 1219l2 -1555h-161v915l-521 -942l-516 932v-905h-159z" />
<glyph unicode="N" horiz-adv-x="1406" d="M0 -25v1518l148 -147l1043 -1035v1147h155v-1483h-36l-112 110l-1043 1035v-1145h-155z" />
<glyph unicode="O" horiz-adv-x="1584" d="M0 720q0 315 223 539q224 223 539 223t539 -223q223 -224 223 -539t-223 -539q-224 -223 -539 -223t-539 223q-223 224 -223 539zM154 720q0 -252 178 -430t430 -178t430 178t178 430t-178 430t-430 178t-430 -178t-178 -430z" />
<glyph unicode="P" horiz-adv-x="1104" d="M0 -25v1483h478q141 0 283 -70q283 -137 283 -473q0 -337 -283 -474q-142 -69 -283 -69h-323v-397h-155zM155 525h323q108 1 211 52q196 97 196 338t-195 338q-104 51 -212 51h-323v-779z" />
<glyph unicode="Q" horiz-adv-x="1608" d="M0 720q0 315 223 539q224 223 539 223t539 -223q223 -224 223 -539t-223 -539q-224 -223 -539 -223t-539 223q-223 224 -223 539zM154 720q0 -252 178 -430t430 -178t430 178t178 430t-178 430t-430 178t-430 -178t-178 -430zM240 -45l77 45l52 35l36 -54q18 -29 54 -58 q72 -54 164 -54h287q147 0 261 -89q59 -46 89 -96l33 -54l-76 -47l-54 -33l-34 54q-18 28 -55 56q-71 54 -164 54h-287q-147 0 -260 89q-60 47 -90 96z" />
<glyph unicode="R" horiz-adv-x="1106" d="M0 -25v1482h105h376q141 0 283 -70q282 -137 282 -473q0 -284 -205 -428q-128 -90 -255 -105l419 -406h-227l-416 403l-148 147h267q108 0 212 51q195 97 195 338t-195 338q-103 51 -212 51h-326v-1328h-155z" />
<glyph unicode="S" horiz-adv-x="1143" d="M0 502h153q4 -179 117 -288q113 -110 271 -110q161 0 275 113q113 111 113 268q0 159 -113 270q-114 113 -275 113q-115 0 -202 74q-12 11 -16 15q-92 91 -92 218q0 128 92 219q90 90 218 90q237 -1 339 -286l-186 1q-6 41 -42 86q-46 46 -111 46q-64 0 -110 -46 q-46 -45 -46 -110q0 -63 46 -108q46 -46 110 -46q100 0 194 -37q155 -58 250 -194q98 -137 98 -305q0 -222 -159 -377q-159 -157 -383 -157q-222 0 -379 154q-158 153 -162 397z" />
<glyph unicode="T" horiz-adv-x="1189" d="M0 1302v155h1129v-155h-488v-1327h-155v1327h-486z" />
<glyph unicode="U" horiz-adv-x="1418" d="M0 733v727h151v-727q3 -248 158 -423q154 -174 370 -174t369 173q155 174 159 422v729h151v-729q-4 -314 -201 -536q-199 -223 -478 -223q-280 0 -479 224q-197 222 -200 537z" />
<glyph unicode="V" horiz-adv-x="1601" d="M0 1460h183l612 -1158l608 1158h190l-701 -1333v-1l-97 -181l-90 171z" />
<glyph unicode="W" horiz-adv-x="1895" d="M0 1458h178l614 -1169l79 150l-536 1019h178l447 -850l446 850h177l-534 -1019l79 -150l613 1169h178l-791 -1506l-168 318l-168 -319z" />
<glyph unicode="X" horiz-adv-x="1340" d="M0 1459h181l477 -839l475 839h183l-567 -1000l274 -484h-182l-183 324l-183 -324h-183l275 484z" />
<glyph unicode="Y" horiz-adv-x="1248" d="M0 1459h172l438 -845l440 845h171l-533 -1015v-469h-155v469z" />
<glyph unicode="Z" horiz-adv-x="1195" d="M0 -25l878 1327h-864v155h1156l-876 -1327h853v-155h-1147z" />
<glyph unicode="[" horiz-adv-x="303" d="M0 -25v1482h148v-2h95v-155h-95v-1170h95v-155h-243z" />
<glyph unicode="\" horiz-adv-x="960" d="M0 1457h171l771 -1482h-171z" />
<glyph unicode="]" horiz-adv-x="303" d="M0 -25v155h95v1170h-95v155h95v2h148v-1482h-243z" />
<glyph unicode="^" horiz-adv-x="539" d="M0 1001l256 494l255 -494h-164l-89 194l-94 -194h-164z" />
<glyph unicode="_" horiz-adv-x="885" d="M0 25h825v-153h-825v153z" />
<glyph unicode="`" horiz-adv-x="471" d="M-48 1959h179l270 -459h-171z" />
<glyph unicode="a" horiz-adv-x="1584" d="M0 720q0 315 223 539q224 223 539 223t539 -223q223 -224 223 -539v-743h-149v280q-2 -3 -74 -76q-224 -223 -539 -223t-539 223q-223 224 -223 539zM154 720q0 -252 178 -430t430 -178t430 178t178 430t-178 430t-430 178t-430 -178t-178 -430z" />
<glyph unicode="b" horiz-adv-x="1213" d="M0 -25v1485h624q112 0 201 -56q124 -75 124 -224q0 -141 -74 -190q278 -112 278 -473q0 -336 -282 -472q-143 -70 -283 -70h-484h-104zM154 128h434q109 1 211 51q196 98 196 338t-196 338q-103 51 -211 51h-434v-778zM154 1060h471q101 0 141 54q23 30 24 66 q0 73 -73 104q-43 18 -93 18h-470v-242z" />
<glyph unicode="c" horiz-adv-x="1536" d="M-3 719q0 316 224 542q226 224 543 224q266 0 473 -164q206 -161 277 -439h-163q-62 204 -220 325q-162 122 -367 122q-254 0 -432 -179q-179 -178 -179 -431q0 -254 179 -432q178 -179 432 -179q200 0 360 118q158 115 224 314h163q-76 -272 -280 -429 q-205 -159 -467 -159q-317 0 -543 224q-224 226 -224 543z" />
<glyph unicode="d" horiz-adv-x="1443" d="M0 -24l1 1481h214l359 -1q142 0 233 -17q220 -44 367 -182q209 -194 209 -541t-209 -541q-147 -137 -378 -182q-96 -18 -180 -18q-22 0 -43 1h-468h-105zM155 134h424q320 0 488 157q158 148 158 425q0 278 -158 426q-117 109 -311 143q-78 14 -139 14q-19 0 -37 -1h-3 h-422v-1164z" />
<glyph unicode="e" horiz-adv-x="1581" d="M0 719q0 311 220 533q222 220 534 220q261 0 465 -161q202 -159 265 -401l-1291 -1q-38 -96 -38 -190q7 -245 180 -419q174 -173 419 -179q193 6 349 120q153 112 218 308h168q-76 -273 -276 -427q-202 -157 -459 -157q-312 0 -534 220q-220 222 -220 534zM262 1057h982 q-39 73 -148 152q-152 108 -342 108q-237 0 -405 -159q-67 -63 -87 -101z" />
<glyph unicode="f" horiz-adv-x="1201" d="M0 -25v1482h1141v-155h-1v-2h-985v-763h986v-155h-986v-407h-155z" />
<glyph unicode="g" horiz-adv-x="1687" d="M-3 717q0 318 225 544q226 225 545 225q267 0 475 -164q206 -163 278 -443h-165q-64 206 -222 325q-163 122 -366 122q-252 0 -431 -179q-178 -178 -178 -430q0 -253 178 -431q179 -178 431 -178q191 0 351 113q154 111 228 301l276 2v-157h-171q-90 -181 -273 -299 q-189 -121 -411 -121q-319 0 -545 225q-225 226 -225 545z" />
<glyph unicode="h" horiz-adv-x="1307" d="M0 -25v1484h155v-922h937v922h155v-1484h-155v408h-937v-408h-155z" />
<glyph unicode="i" horiz-adv-x="215" d="M0 -25v1484h155v-1484h-155z" />
<glyph unicode="j" horiz-adv-x="821" d="M0 -25v163q263 2 430 171q168 168 168 407v741h163v-741q0 -305 -215 -523q-216 -216 -546 -218z" />
<glyph unicode="k" horiz-adv-x="1286" d="M0 -25v1484h154v-946l889 946h216l-946 -1005l510 -480h-229l-388 366l-1 -1l-51 47v-411h-154z" />
<glyph unicode="l" horiz-adv-x="1201" d="M0 -25v1483h155v-1328h986v-155h-1141z" />
<glyph unicode="m" horiz-adv-x="1416" d="M0 -25v1557l681 -1221l674 1219l2 -1555h-161v915l-521 -942l-516 932v-905h-159z" />
<glyph unicode="n" horiz-adv-x="1418" d="M0 -28v729q4 314 201 536q199 223 478 223q280 0 479 -224q197 -222 200 -537v-727h-151v727q-3 248 -158 423q-154 174 -370 174t-369 -173q-155 -174 -157 -453l-2 -698h-151z" />
<glyph unicode="o" horiz-adv-x="1584" d="M0 720q0 315 223 539q224 223 539 223t539 -223q223 -224 223 -539t-223 -539q-224 -223 -539 -223t-539 223q-223 224 -223 539zM154 720q0 -252 178 -430t430 -178t430 178t178 430t-178 430t-430 178t-430 -178t-178 -430z" />
<glyph unicode="p" horiz-adv-x="1104" d="M0 -25v1483h478q141 0 283 -70q283 -137 283 -473q0 -337 -283 -474q-142 -69 -283 -69h-323v-397h-155zM155 525h323q108 1 211 52q196 97 196 338t-195 338q-104 51 -212 51h-323v-779z" />
<glyph unicode="q" horiz-adv-x="1609" d="M0 730q0 313 222 535t536 222q313 0 535 -222t222 -535q0 -314 -222 -536q-66 -66 -67 -66h274v-156h-742q-314 0 -536 222t-222 536zM154 730q0 -251 177 -428t427 -177t427 177t177 428q0 249 -177 426t-427 177t-427 -177t-177 -426z" />
<glyph unicode="r" horiz-adv-x="1106" d="M0 -25v1482h481q141 0 283 -70q282 -137 282 -473q0 -284 -205 -428q-128 -90 -255 -105l419 -406h-227l-408 396h-215v-396h-155zM155 525h326q108 0 212 51q195 97 195 338t-195 338q-103 51 -212 51h-326v-778z" />
<glyph unicode="s" horiz-adv-x="1143" d="M0 502h153q4 -179 117 -288q113 -110 271 -110q161 0 275 113q113 111 113 268q0 159 -113 270q-114 113 -275 113q-115 0 -202 74q-12 11 -16 15q-92 91 -92 218q0 128 92 219q90 90 218 90q237 -1 339 -286l-186 1q-6 41 -42 86q-46 46 -111 46q-64 0 -110 -46 q-46 -45 -46 -110q0 -63 46 -108q46 -46 110 -46q100 0 194 -37q155 -58 250 -194q98 -137 98 -305q0 -222 -159 -377q-159 -157 -383 -157q-222 0 -379 154q-158 153 -162 397z" />
<glyph unicode="t" horiz-adv-x="1189" d="M0 1302v155h1129v-155h-488v-1327h-155v1327h-486z" />
<glyph unicode="u" horiz-adv-x="1418" d="M0 733v727h151v-727q3 -248 158 -423q154 -174 370 -174t369 173q155 174 159 422v729h151v-729q-4 -314 -201 -536q-199 -223 -478 -223q-280 0 -479 224q-197 222 -200 537z" />
<glyph unicode="v" horiz-adv-x="1598" d="M0 1459h181l613 -1159l608 1159h187l-699 -1332v-1l-97 -179l-89 170z" />
<glyph unicode="w" horiz-adv-x="1960" d="M0 1459h161l634 -1205l97 184l74 142l75 -142l97 -184l633 1205h162l-768 -1460v-1l-26 -52l-76 142l-97 184l-144 -273v-1l-26 -52l-76 142z" />
<glyph unicode="x" horiz-adv-x="1340" d="M0 1459h181l477 -839l475 839h183l-567 -1000l274 -484h-182l-183 324l-183 -324h-183l275 484z" />
<glyph unicode="y" horiz-adv-x="1315" d="M3 680v781h155l-1 -780v-11q0 -186 136 -373q145 -162 338 -162q183 0 328 144q138 154 142 364v819l157 -1v-1203v-163q-3 -289 -185 -495q-185 -206 -442 -206q-211 0 -380 146q-169 144 -224 374l-12 42h161l7 -25q49 -167 173 -269q123 -101 275 -101q190 0 330 156 q139 157 142 378l-2 163v-51q-34 -60 -172 -145q-139 -85 -298 -85q-259 0 -443 207q-182 206 -185 496z" />
<glyph unicode="z" horiz-adv-x="1195" d="M0 -25l878 1327h-864v155h1156l-876 -1327h853v-155h-1147z" />
<glyph unicode="{" horiz-adv-x="467" d="M0 718q118 75 118 123v502q1 51 45 97q71 74 266 105v-149q-92 -12 -139 -40q-26 -15 -27 -21v-494q0 -91 -51 -123q51 -32 51 -123v-494q1 -6 27 -21q47 -28 139 -39v-152q-212 48 -277 125q-20 22 -34 81v500q0 48 -118 123z" />
<glyph unicode="|" horiz-adv-x="215" d="M0 -448v2185h155v-2185h-155z" />
<glyph unicode="}" horiz-adv-x="467" d="M0 41q92 11 138 39q27 15 29 21v494q0 91 51 123q-51 32 -51 123v494q-2 6 -29 21q-46 28 -138 40v149q194 -31 266 -105q44 -46 45 -97v-502q0 -48 118 -123q-118 -75 -118 -123v-500q-14 -59 -34 -81q-65 -77 -277 -125v152z" />
<glyph unicode="~" horiz-adv-x="1143" d="M0 569q116 215 325 215q163 0 285 -133q84 -90 187 -90q97 11 143 72l177 1q-116 -215 -325 -215q-163 0 -285 134q-86 89 -186 89q-113 -2 -130 -73h-191z" />
<glyph unicode="&#xa1;" horiz-adv-x="291" d="M0 1365q0 47 34 81t81 34q48 0 82 -34t34 -81q0 -48 -34 -82t-82 -34q-47 0 -81 34t-34 82zM41 -25v1224h152v-1224h-152z" />
<glyph unicode="&#xa2;" horiz-adv-x="1050" d="M0 683q0 206 146 354q148 146 355 146q81 0 135 -18l151 292h161l-182 -349q13 -7 45 -32q133 -106 186 -316h-148q-43 137 -135 207q-18 14 -14 12l-329 -630q47 -22 130 -22q116 0 209 69q92 67 136 200h150q-57 -208 -190 -310q-134 -104 -305 -104q-119 0 -196 38 l-128 -245h-161l166 320q-11 8 -36 33q-146 148 -146 355zM145 683q0 -148 103 -252q14 -12 3 -4l315 607q-15 4 -65 4q-148 0 -252 -104t-104 -251z" />
<glyph unicode="&#xa3;" horiz-adv-x="1142" d="M0 625v139h117q-13 23 -26 67q-35 122 15 256q68 185 191 286q126 103 285 102q147 -1 274 -88q129 -88 175 -219q54 -157 -48 -305h-230q168 137 127 253q-28 83 -115 140q-88 59 -184 60q-107 1 -190 -70q-85 -74 -137 -214q-32 -86 -10 -158q13 -41 56 -110h203v-139 h-118q-10 19 -2 5q49 -97 26 -169q-7 -21 -100 -191q-8 -15 -60 -149h753v-146h-959q38 220 131 380q68 117 76 136q10 29 -8 66q-15 27 -41 68h-201z" />
<glyph unicode="&#xa4;" horiz-adv-x="731" d="M0 536l91 90q-40 55 -40 148q0 92 40 147l-91 90l108 108l93 -92q51 35 138 35q94 0 148 -39l96 96l109 -108l-99 -98q34 -53 34 -140q2 -87 -33 -140l98 -97l-109 -108l-95 96q-56 -39 -149 -39q-87 0 -138 35l-93 -92zM215 778.5q0 -53.5 39 -91.5q38 -38 91.5 -38 t91.5 38q37 38 37 91.5t-37 91.5q-38 38 -91.5 38t-91.5 -38q-39 -38 -39 -91.5z" />
<glyph unicode="&#xa5;" horiz-adv-x="1248" d="M0 1459h172l438 -845l440 845h171l-460 -878h177v-153h-259l9 14v-81h250v-153h-250v-233h-155v233h-258v153h258v81l10 -14h-268v153h186z" />
<glyph unicode="&#xa6;" />
<glyph unicode="&#xa7;" horiz-adv-x="925" d="M0 374h128q4 -141 89 -224q85 -82 205 -82q121 0 206 84q86 84 86 203t-86 203q-85 85 -206 85q-90 0 -159 58q-9 8 -14 12q-71 72 -71 172q0 101 74 179q0 1 -1 1q-73 73 -73 174q0 100 71 172q72 71 173 71q244 0 244 -243v-26h-129v26q0 113 -115 113q-48 0 -81 -34 q-34 -33 -34 -79q0 -47 34 -80q26 -27 59 -32l21 1q129 0 198 -52q247 -126 225 -370q-14 -140 -36 -183q36 -74 36 -168q0 -172 -124 -295q-124 -122 -298 -122q-173 0 -296 120t-126 316zM252 1064zM307 883q0 -46 34 -79q33 -34 81 -34q78 0 151 -29q88 -33 142 -88 q-1 -1 -1 53q0 119 -86 203q-85 85 -206 85q-12 0 -21 1q-34 -5 -60 -32q-34 -33 -34 -80z" />
<glyph unicode="&#xa8;" horiz-adv-x="548" d="M0 1573q0 48 34 82t82 34q47 0 81 -34t34 -82q0 -47 -34 -81t-81 -34q-48 0 -82 34t-34 81zM257 1573q0 48 34 82t82 34q47 0 81 -34t34 -82q0 -47 -34 -81t-81 -34q-48 0 -82 34t-34 81z" />
<glyph unicode="&#xa9;" horiz-adv-x="1551" d="M0 716q0 309 218.5 527.5t526.5 218.5q309 0 527.5 -218.5t218.5 -527.5q0 -308 -218.5 -526.5t-527.5 -218.5q-308 0 -526.5 218.5t-218.5 526.5zM162 720q0 -244 172.5 -416.5t416.5 -172.5q245 0 417.5 172.5t172.5 416.5q0 245 -172.5 417.5t-417.5 172.5 q-244 0 -416.5 -172.5t-172.5 -417.5zM272 732q0 200 141 342q143 141 342 141q168 0 298 -103q130 -102 183 -310h-153q-40 132 -127 198q-88 67 -201 67q-139 0 -237 -98t-98 -237t98 -237t237 -98q110 0 198 65q87 63 129 192h153q-57 -206 -185 -304 q-130 -101 -295 -101q-199 0 -342 141q-141 142 -141 342z" />
<glyph unicode="&#xaa;" />
<glyph unicode="&#xab;" horiz-adv-x="1172" d="M0 738l761 395v-171q-69 -36 -272 -141q-183 -95 -159 -82q64 -33 431 -223v-172zM380 738l761 395v-171q-69 -36 -272 -141q-183 -95 -159 -82q64 -33 431 -223v-172z" />
<glyph unicode="&#xac;" />
<glyph unicode="&#xad;" horiz-adv-x="885" d="M0 532v153h825v-153h-825z" />
<glyph unicode="&#xae;" horiz-adv-x="1551" d="M0 706q0 309 218.5 527.5t526.5 218.5q309 0 527.5 -218.5t218.5 -527.5q0 -308 -218.5 -526.5t-527.5 -218.5q-308 0 -526.5 218.5t-218.5 526.5zM162 710q0 -244 172.5 -416.5t416.5 -172.5q245 0 417.5 172.5t172.5 416.5q0 245 -172.5 417.5t-417.5 172.5 q-244 0 -416.5 -172.5t-172.5 -417.5zM462 263v909h304q88 0 175 -43q178 -86 178 -297q0 -178 -130 -268q-79 -56 -106 -59l250 -242h-205l-236 229h-89v-229h-141zM603 632h163q57 0 112 27q98 49 98 173t-98 173q-55 27 -112 27h-163v-400z" />
<glyph unicode="&#xaf;" horiz-adv-x="1045" d="M0 1305v153h985v-153h-985z" />
<glyph unicode="&#xb0;" horiz-adv-x="448" d="M0 1269q0 80 57 137t137 57t137 -57t57 -137t-57 -137t-137 -57t-137 57t-57 137zM160 1273q0 -15 9.5 -24.5t24.5 -9.5q14 0 24 10t10 24t-10 24t-24 10t-24 -10t-10 -24z" />
<glyph unicode="&#xb1;" />
<glyph unicode="&#xb2;" />
<glyph unicode="&#xb3;" />
<glyph unicode="&#xb4;" horiz-adv-x="471" d="M2 1500l270 459h179l-278 -459h-171z" />
<glyph unicode="&#xb5;" horiz-adv-x="1412" d="M0 -236v1696h150v-806q23 -197 154 -346q155 -175 372 -175t371 174q156 176 160 425v727h145v-727q-4 -313 -200 -535q-198 -222 -476 -222q-279 0 -477 223q-55 63 -49 52v-486h-150z" />
<glyph unicode="&#xb6;" horiz-adv-x="730" d="M0 1170q0 121 110 205.5t287 84.5v-1h273v-140h-74v-935h-152v935h-47v-439h-1v-496h-152v512q-65 15 -132 67q-112 85 -112 207z" />
<glyph unicode="&#xb7;" horiz-adv-x="291" d="M0 695q0 48 34 82t82 34q47 0 81 -34t34 -82q0 -47 -34 -81t-81 -34q-48 0 -82 34t-34 81z" />
<glyph unicode="&#xb8;" horiz-adv-x="400" d="M0 26h156v-62q67 -13 124 -67q60 -57 60 -132q0 -88 -82 -150q-79 -59 -189 -59q-23 0 -69 6v151h31q53 0 86 18.5t33 36.5t-33 36.5t-86 18.5h-31v203z" />
<glyph unicode="&#xb9;" />
<glyph unicode="&#xba;" />
<glyph unicode="&#xbb;" horiz-adv-x="1172" d="M0 344v172q368 190 432 223q23 -13 -160 82q-202 105 -272 141v171l761 -395zM380 344v172q368 190 432 223q23 -13 -160 82q-202 105 -272 141v171l761 -395z" />
<glyph unicode="&#xbc;" />
<glyph unicode="&#xbd;" />
<glyph unicode="&#xbe;" />
<glyph unicode="&#xbf;" horiz-adv-x="1285" d="M0 546q0 227 160 396q158 167 368 187v85h158v-240h-98q-163 0 -295 -126t-132 -302t131 -302q132 -126 321 -126q187 0 320 125q131 126 131 298v1v27h161v-27q0 -240 -180 -413q-179 -172 -432 -172t-432 171q-181 172 -181 418zM495 1417q0 48 34 82t82 34t82 -34 t34 -82q0 -47 -34 -81t-82 -34t-82 34t-34 81z" />
<glyph unicode="&#xc0;" horiz-adv-x="1615" d="M0 -25l716 1363v1l79 147l74 -142l719 -1369h-162l-213 406h-839l-213 -406h-161zM456 536h676l-338 643zM461 1730h180l184 -306h-171z" />
<glyph unicode="&#xc1;" horiz-adv-x="1615" d="M0 -25l716 1363v1l79 147l74 -142l719 -1369h-162l-213 406h-839l-213 -406h-161zM456 536h676l-338 643zM752 1424l184 306h180l-193 -306h-171z" />
<glyph unicode="&#xc2;" horiz-adv-x="1615" d="M0 -25l716 1363v1l79 147l74 -142l719 -1369h-162l-213 406h-839l-213 -406h-161zM456 536h676l-338 643zM592 1435l202 321l203 -321h-162l-40 71l-41 -71h-162z" />
<glyph unicode="&#xc3;" horiz-adv-x="1615" d="M0 -25l716 1363v1l79 147l74 -142l719 -1369h-162l-213 406h-839l-213 -406h-161zM424 1534q98 179 233 179q105 0 184 -85q39 -43 85 -43q42 5 70 42h161q-96 -179 -232 -179q-106 0 -184 86q-40 42 -85 42q-44 -1 -54 -42h-178zM456 536h676l-338 643z" />
<glyph unicode="&#xc4;" horiz-adv-x="1615" d="M0 -25l716 1363v1l79 147l74 -142l719 -1369h-162l-213 406h-839l-213 -406h-161zM456 536h676l-338 643zM554 1573q0 48 34 82t82 34t81.5 -34t33.5 -82q0 -47 -33.5 -81t-81.5 -34t-82 34t-34 81zM811 1573q0 48 34 82t82 34t81.5 -34t33.5 -82q0 -47 -33.5 -81 t-81.5 -34t-82 34t-34 81z" />
<glyph unicode="&#xc5;" horiz-adv-x="1615" d="M0 -25l716 1363v1l79 147l74 -142l719 -1369h-162l-213 406h-839l-213 -406h-161zM456 536h676l-338 643zM652 1597q0 57 40.5 98t97.5 41q58 0 98.5 -41t40.5 -98t-40.5 -97.5t-98.5 -40.5q-57 0 -97.5 40.5t-40.5 97.5zM776 1600q0 -7 4.5 -11t9.5 -4q7 0 11 4t4 11 q0 6 -4 10t-11 4q-5 0 -9.5 -4t-4.5 -10z" />
<glyph unicode="&#xc6;" horiz-adv-x="1660" d="M0 -25l860 1484l778 1v-155h-619v-767h615v-155h-615v-252h619v-156h-774l-1 408h-421l-229 -408h-213zM532 538h330v558z" />
<glyph unicode="&#xc7;" horiz-adv-x="1545" d="M0 719q0 311 220 533q222 220 534 220q261 0 465 -161q202 -159 273 -437h-168q-61 201 -215 318q-157 118 -355 118q-246 0 -419 -173t-173 -418q0 -246 173 -419t419 -173q194 0 349 114q153 112 218 308h168q-76 -273 -276 -427q-165 -128 -345 -149v-9 q67 -13 124 -67q60 -57 60 -132q0 -88 -82 -150q-79 -59 -189 -59q-23 0 -69 6v151h31q53 0 86 18.5t33 36.5t-33 36.5t-86 18.5h-31v143q-277 5 -492 219q-220 222 -220 534z" />
<glyph unicode="&#xc8;" horiz-adv-x="1204" d="M0 -25v1487h155v-2h989v-155h-989v-767h989v-155h-989v-253h989v-155h-1039h-105zM395 1780h179l184 -306h-171z" />
<glyph unicode="&#xc9;" horiz-adv-x="1204" d="M0 -25v1487h155v-2h989v-155h-989v-767h989v-155h-989v-253h989v-155h-1039h-105zM436 1484l184 306h179l-192 -306h-171z" />
<glyph unicode="&#xca;" horiz-adv-x="1204" d="M0 -25v1487h155v-2h989v-155h-989v-767h989v-155h-989v-253h989v-155h-1039h-105zM426 1495l202 321l202 -321h-162l-39 71l-42 -71h-161z" />
<glyph unicode="&#xcb;" horiz-adv-x="1204" d="M0 -25v1487h155v-2h989v-155h-989v-767h989v-155h-989v-253h989v-155h-1039h-105zM368 1603q0 48 34 82t82 34q47 0 81 -34t34 -82q0 -47 -34 -81t-81 -34q-48 0 -82 34t-34 81zM625 1603q0 48 34 82t82 34q47 0 81 -34t34 -82q0 -47 -34 -81t-81 -34q-48 0 -82 34 t-34 81z" />
<glyph unicode="&#xcc;" horiz-adv-x="384" d="M-10 1798h179l184 -306h-171zM183 -25v1484h155v-1484h-155z" />
<glyph unicode="&#xcd;" horiz-adv-x="384" d="M10 1492l184 306h179l-192 -306h-171zM23 -25v1484h155v-1484h-155z" />
<glyph unicode="&#xce;" horiz-adv-x="423" d="M0 1495l202 321l201 -321h-160l-40 72l-42 -72h-161zM124 -25v1484h155v-1484h-155z" />
<glyph unicode="&#xcf;" horiz-adv-x="548" d="M0 1613q0 48 34 82t82 34q47 0 81 -34t34 -82q0 -47 -34 -81t-81 -34q-48 0 -82 34t-34 81zM163 -25v1484h155v-1484h-155zM257 1613q0 48 34 82t82 34q47 0 81 -34t34 -82q0 -47 -34 -81t-81 -34q-48 0 -82 34t-34 81z" />
<glyph unicode="&#xd0;" horiz-adv-x="1632" d="M0 661v152h190v644h214l359 -1q142 0 233 -17q220 -44 367 -182q209 -194 209 -541t-209 -541q-147 -137 -378 -182q-121 -23 -223 -17h-573v685h-189zM344 134h424q320 0 488 157q158 148 158 425q0 278 -158 426q-117 109 -311 143q-102 19 -176 13h-425v-485h175v-152 h-175v-527z" />
<glyph unicode="&#xd1;" horiz-adv-x="1406" d="M0 -25v1518l148 -147l1043 -1035v1147h155v-1483h-36l-112 110l-1043 1035v-1145h-155zM358 1534q97 179 233 179q105 0 183 -85q40 -43 86 -43q41 5 70 42h161q-96 -179 -232 -179q-106 0 -184 86q-41 42 -86 42q-43 -1 -53 -42h-178z" />
<glyph unicode="&#xd2;" horiz-adv-x="1594" d="M0 720q0 317 224 543q226 224 543 224t543 -224q224 -226 224 -543t-224 -543q-226 -224 -543 -224t-543 224q-224 226 -224 543zM164 720q0 -250 177 -426q176 -177 426 -177t426 177q177 176 177 426t-177 426q-176 177 -426 177t-426 -177q-177 -176 -177 -426z M525 1761h179l151 -252h-171z" />
<glyph unicode="&#xd3;" horiz-adv-x="1594" d="M0 720q0 317 224 543q226 224 543 224t543 -224q224 -226 224 -543t-224 -543q-226 -224 -543 -224t-543 224q-224 226 -224 543zM164 720q0 -250 177 -426q176 -177 426 -177t426 177q177 176 177 426t-177 426q-176 177 -426 177t-426 -177q-177 -176 -177 -426z M668 1509l151 252h179l-159 -252h-171z" />
<glyph unicode="&#xd4;" horiz-adv-x="1594" d="M0 720q0 317 224 543q226 224 543 224t543 -224q224 -226 224 -543t-224 -543q-226 -224 -543 -224t-543 224q-224 226 -224 543zM164 720q0 -250 177 -426q176 -177 426 -177t426 177q177 176 177 426t-177 426q-176 177 -426 177t-426 -177q-177 -176 -177 -426z M582 1518l187 298l188 -298h-152l-35 63l-37 -63h-151z" />
<glyph unicode="&#xd5;" horiz-adv-x="1594" d="M0 720q0 317 224 543q226 224 543 224t543 -224q224 -226 224 -543t-224 -543q-226 -224 -543 -224t-543 224q-224 226 -224 543zM164 720q0 -250 177 -426q176 -177 426 -177t426 177q177 176 177 426t-177 426q-176 177 -426 177t-426 -177q-177 -176 -177 -426z M408 1594q97 179 233 179q105 0 183 -85q40 -43 86 -43q41 5 70 42h161q-96 -179 -232 -179q-106 0 -184 86q-41 42 -86 42q-43 -1 -53 -42h-178z" />
<glyph unicode="&#xd6;" horiz-adv-x="1594" d="M0 720q0 317 224 543q226 224 543 224t543 -224q224 -226 224 -543t-224 -543q-226 -224 -543 -224t-543 224q-224 226 -224 543zM164 720q0 -250 177 -426q176 -177 426 -177t426 177q177 176 177 426t-177 426q-176 177 -426 177t-426 -177q-177 -176 -177 -426z M538 1623q0 48 34 82t82 34q47 0 81 -34t34 -82q0 -47 -34 -81t-81 -34q-48 0 -82 34t-34 81zM795 1623q0 48 34 82t82 34q47 0 81 -34t34 -82q0 -47 -34 -81t-81 -34q-48 0 -82 34t-34 81z" />
<glyph unicode="&#xd7;" horiz-adv-x="731" d="M0 371l238 238l-238 237l108 108l237 -238l238 238l109 -108l-238 -237l238 -238l-109 -108l-238 238l-237 -238z" />
<glyph unicode="&#xd8;" horiz-adv-x="1594" d="M0 720q0 317 224 543q226 224 543 224t543 -224q224 -226 224 -543t-224 -543q-226 -224 -543 -224t-543 224q-224 226 -224 543zM164 720q0 -250 177 -426q176 -177 426 -177t426 177q177 176 177 426t-177 426q-176 177 -426 177t-426 -177q-177 -176 -177 -426z M220 -132l890 1711h178l-890 -1711h-178z" />
<glyph unicode="&#xd9;" horiz-adv-x="1412" d="M0 733v724h145l-50 -724h50q3 -249 159 -425q155 -175 372 -175t371 174q156 175 160 424v726h145l-50 -726h50q-4 -313 -200 -534q-198 -222 -476 -222q-279 0 -477 223q-196 221 -199 535zM445 1730h179l184 -306h-171z" />
<glyph unicode="&#xda;" horiz-adv-x="1412" d="M0 733v724h145l-50 -724h50q3 -249 159 -425q155 -175 372 -175t371 174q156 175 160 424v726h145l-50 -726h50q-4 -313 -200 -534q-198 -222 -476 -222q-279 0 -477 223q-196 221 -199 535zM516 1424l184 306h179l-192 -306h-171z" />
<glyph unicode="&#xdb;" horiz-adv-x="1412" d="M0 733v724h145l-50 -724h50q3 -249 159 -425q155 -175 372 -175t371 174q156 175 160 424v726h145l-50 -726h50q-4 -313 -200 -534q-198 -222 -476 -222q-279 0 -477 223q-196 221 -199 535zM486 1435l202 321l202 -321h-162l-39 71l-42 -71h-161z" />
<glyph unicode="&#xdc;" horiz-adv-x="1412" d="M0 733v724h145l-50 -724h50q3 -249 159 -425q155 -175 372 -175t371 174q156 175 160 424v726h145l-50 -726h50q-4 -313 -200 -534q-198 -222 -476 -222q-279 0 -477 223q-196 221 -199 535zM448 1573q0 48 34 82t82 34q47 0 81 -34t34 -82q0 -47 -34 -81t-81 -34 q-48 0 -82 34t-34 81zM705 1573q0 48 34 82t82 34q47 0 81 -34t34 -82q0 -47 -34 -81t-81 -34q-48 0 -82 34t-34 81z" />
<glyph unicode="&#xdd;" horiz-adv-x="1248" d="M0 1459h172l438 -845l440 845h171l-533 -1015v-469h-155v469zM492 1424l184 306h180l-193 -306h-171z" />
<glyph unicode="&#xde;" horiz-adv-x="1105" d="M0 -23v1483h150v-212h329q141 0 283 -70q283 -137 283 -473q0 -337 -283 -474q-142 -69 -283 -69h-323v-187h-155v2h-1zM156 315h323q108 1 211 52q196 97 196 338t-195 338q-104 51 -212 51h-323v-779z" />
<glyph unicode="&#xdf;" horiz-adv-x="1105" d="M0 -27v1076q2 108 75 215q142 209 475 209q236 3 382 -140q113 -113 113 -291q0 -106 -93 -188q-51 -44 -164.5 -92t-6 -89.5t160.5 -82.5q97 -76 97 -187q0 -145 -93 -272q-122 -166 -340 -166q-204 0 -318 87q-118 90 -118 277h154q0 -128 88 -174q70 -37 194 -37 q149 0 224 114q56 82 56 171q0 38 -44 70q-35 26 -131 66q-84 35 -117 59q-59 43 -59 105q0 65 60 114q33 27 122 71q95 49 131 78q44 37 44 76q0 114 -68 181q-60 60 -171 85q-58 12 -102 11q-243 0 -344 -134q-51 -68 -54 -137v-1075h-153z" />
<glyph unicode="&#xe0;" horiz-adv-x="1615" d="M0 720q0 315 223 539q224 223 539 223t539 -223q223 -224 223 -539v-743h-149v280q-2 -3 -74 -76q-224 -223 -539 -223t-539 223q-223 224 -223 539zM154 720q0 -252 178 -430t430 -178t430 178t178 430t-178 430t-430 178t-430 -178t-178 -430zM493 1959h178l271 -459 h-171z" />
<glyph unicode="&#xe1;" horiz-adv-x="1615" d="M0 720q0 315 223 539q224 223 539 223t539 -223q223 -224 223 -539v-743h-149v280q-2 -3 -74 -76q-224 -223 -539 -223t-539 223q-223 224 -223 539zM154 720q0 -252 178 -430t430 -178t430 178t178 430t-178 430t-430 178t-430 -178t-178 -430zM613 1500l271 459h178 l-278 -459h-171z" />
<glyph unicode="&#xe2;" horiz-adv-x="1615" d="M0 720q0 315 223 539q224 223 539 223t539 -223q223 -224 223 -539v-743h-149v280q-2 -3 -74 -76q-224 -223 -539 -223t-539 223q-223 224 -223 539zM154 720q0 -252 178 -430t430 -178t430 178t178 430t-178 430t-430 178t-430 -178t-178 -430zM576 1475l202 321 l201 -321h-161l-40 72l-42 -72h-160z" />
<glyph unicode="&#xe3;" horiz-adv-x="1615" d="M0 720q0 315 223 539q224 223 539 223t539 -223q223 -224 223 -539v-743h-149v280q-2 -3 -74 -76q-224 -223 -539 -223t-539 223q-223 224 -223 539zM154 720q0 -252 178 -430t430 -178t430 178t178 430t-178 430t-430 178t-430 -178t-178 -430zM411 1534q97 179 233 179 q105 0 183 -85q40 -43 86 -43q41 5 70 42h161q-96 -179 -232 -179q-106 0 -184 86q-41 42 -86 42q-43 -1 -53 -42h-178z" />
<glyph unicode="&#xe4;" horiz-adv-x="1615" d="M0 720q0 315 223 539q224 223 539 223t539 -223q223 -224 223 -539v-743h-149v280q-2 -3 -74 -76q-224 -223 -539 -223t-539 223q-223 224 -223 539zM154 720q0 -252 178 -430t430 -178t430 178t178 430t-178 430t-430 178t-430 -178t-178 -430zM534 1573q0 48 34 82 t82 34q47 0 81 -34t34 -82q0 -47 -34 -81t-81 -34q-48 0 -82 34t-34 81zM791 1573q0 48 34 82t82 34q47 0 81 -34t34 -82q0 -47 -34 -81t-81 -34q-48 0 -82 34t-34 81z" />
<glyph unicode="&#xe5;" horiz-adv-x="1615" d="M0 720q0 315 223 539q224 223 539 223t539 -223q223 -224 223 -539v-743h-149v280q-2 -3 -74 -76q-224 -223 -539 -223t-539 223q-223 224 -223 539zM154 720q0 -252 178 -430t430 -178t430 178t178 430t-178 430t-430 178t-430 -178t-178 -430zM639 1607q0 57 40.5 98 t97.5 41t98 -41t41 -98t-41 -97.5t-98 -40.5t-97.5 40.5t-40.5 97.5zM763 1610q0 -7 4 -11t10 -4q7 0 11 4t4 11q0 6 -4 10t-11 4q-6 0 -10 -4t-4 -10z" />
<glyph unicode="&#xe6;" horiz-adv-x="2928" d="M0 720q0 317 224 543q226 224 543 224t543 -224q108 -110 141 -187q33 76 140 184q224 222 539 222q264 0 470 -163q203 -160 275 -440h-175v1h-1148q-15 -48 -19 -120q1 -19 1 -40q0 -20 -1 -38q12 -222 174 -383q175 -175 423 -175q196 0 353 115q154 113 220 311h169 q-77 -275 -279 -431q-203 -158 -463 -158q-315 0 -539 222q-62 62 -60 60v-268h-153v271q-1 -2 -68 -69q-226 -224 -543 -224t-543 224q-224 226 -224 543zM164 720q0 -250 177 -426q176 -177 426 -177t426 177q177 176 177 426t-177 426q-176 177 -426 177t-426 -177 q-177 -176 -177 -426zM1613 1029h1032q-43 85 -156 171q-159 119 -359 119q-248 0 -423 -175q-71 -70 -94 -115z" />
<glyph unicode="&#xe7;" horiz-adv-x="1545" d="M0 719q0 311 220 533q222 220 534 220q261 0 465 -161q202 -159 273 -437h-168q-61 201 -215 318q-157 118 -355 118q-246 0 -419 -173t-173 -418q0 -246 173 -419t419 -173q194 0 349 114q153 112 218 308h168q-76 -273 -276 -427q-165 -128 -345 -149v-9 q67 -13 124 -67q60 -57 60 -132q0 -88 -82 -150q-79 -59 -189 -59q-23 0 -69 6v151h31q53 0 86 18.5t33 36.5t-33 36.5t-86 18.5h-31v143q-277 5 -492 219q-220 222 -220 534z" />
<glyph unicode="&#xe8;" horiz-adv-x="1581" d="M0 719q0 311 220 533q222 220 534 220q261 0 465 -161q202 -159 265 -401l-1291 -1q-38 -96 -38 -190q7 -245 180 -419q174 -173 419 -179q193 6 349 120q153 112 218 308h168q-76 -273 -276 -427q-202 -157 -459 -157q-312 0 -534 220q-220 222 -220 534zM262 1057h982 q-39 73 -148 152q-152 108 -342 108q-237 0 -405 -159q-67 -63 -87 -101zM456 1959h178l271 -459h-171z" />
<glyph unicode="&#xe9;" horiz-adv-x="1581" d="M0 719q0 311 220 533q222 220 534 220q261 0 465 -161q202 -159 265 -401l-1291 -1q-38 -96 -38 -190q7 -245 180 -419q174 -173 419 -179q193 6 349 120q153 112 218 308h168q-76 -273 -276 -427q-202 -157 -459 -157q-312 0 -534 220q-220 222 -220 534zM262 1057h982 q-39 73 -148 152q-152 108 -342 108q-237 0 -405 -159q-67 -63 -87 -101zM576 1500l271 459h178l-278 -459h-171z" />
<glyph unicode="&#xea;" horiz-adv-x="1581" d="M0 719q0 311 220 533q222 220 534 220q261 0 465 -161q202 -159 265 -401l-1291 -1q-38 -96 -38 -190q7 -245 180 -419q174 -173 419 -179q193 6 349 120q153 112 218 308h168q-76 -273 -276 -427q-202 -157 -459 -157q-312 0 -534 220q-220 222 -220 534zM262 1057h982 q-39 73 -148 152q-152 108 -342 108q-237 0 -405 -159q-67 -63 -87 -101zM539 1475l202 321l201 -321h-161l-40 72l-42 -72h-160z" />
<glyph unicode="&#xeb;" horiz-adv-x="1581" d="M0 719q0 311 220 533q222 220 534 220q261 0 465 -161q202 -159 265 -401l-1291 -1q-38 -96 -38 -190q7 -245 180 -419q174 -173 419 -179q193 6 349 120q153 112 218 308h168q-76 -273 -276 -427q-202 -157 -459 -157q-312 0 -534 220q-220 222 -220 534zM262 1057h982 q-39 73 -148 152q-152 108 -342 108q-237 0 -405 -159q-67 -63 -87 -101zM497 1573q0 48 34 82t82 34q47 0 81 -34t34 -82q0 -47 -34 -81t-81 -34q-48 0 -82 34t-34 81zM754 1573q0 48 34 82t82 34q47 0 81 -34t34 -82q0 -47 -34 -81t-81 -34q-48 0 -82 34t-34 81z" />
<glyph unicode="&#xec;" horiz-adv-x="384" d="M0 1738h179l184 -306h-171zM183 -25v1484h155v-1484h-155z" />
<glyph unicode="&#xed;" horiz-adv-x="215" d="M0 1500l270 459h179l-278 -459h-171zM17 -25v1484h155v-1484h-155z" />
<glyph unicode="&#xee;" horiz-adv-x="340" d="M0 1495l202 321l201 -321h-160l-40 72l-42 -72h-161zM124 -25v1484h155v-1484h-155z" />
<glyph unicode="&#xef;" horiz-adv-x="395" d="M0 1613q0 48 34 82t82 34q47 0 81 -34t34 -82q0 -47 -34 -81t-81 -34q-48 0 -82 34t-34 81zM162 -25v1484h155v-1484h-155zM257 1613q0 48 34 82t82 34q47 0 81 -34t34 -82q0 -47 -34 -81t-81 -34q-48 0 -82 34t-34 81z" />
<glyph unicode="&#xf0;" horiz-adv-x="1603" d="M18 867q57 278 282 451q224 170 383 162q-20 10 -133 46l-20 -83l-139 34l21 90q-27 8 -102 24l35 158q75 -18 105 -26l24 98l141 -34l-26 -104q441 -140 687 -411q143 -132 205 -318q64 -191 24 -391q-63 -307 -326 -481q-261 -174 -569 -110q-309 63 -481 324 q-174 263 -111 571zM180 834q-49 -241 86 -446q136 -205 377 -255q240 -48 446 87q204 136 253 376q49 241 -86 446q-136 206 -376 255q-241 48 -446 -87t-254 -376z" />
<glyph unicode="&#xf1;" horiz-adv-x="1443" d="M0 -25v743q4 320 204 546q203 227 487 227q285 0 488 -228q201 -226 204 -547v-741h-147v716h-1q-2 280 -163 460q-158 179 -381 179q-222 0 -380 -178q-160 -180 -163 -434v-743h-148zM318 1594q97 179 233 179q105 0 183 -85q40 -43 86 -43q41 5 70 42h161 q-96 -179 -232 -179q-106 0 -184 86q-41 42 -86 42q-43 -1 -53 -42h-178z" />
<glyph unicode="&#xf2;" horiz-adv-x="1584" d="M0 720q0 315 223 539q224 223 539 223t539 -223q223 -224 223 -539t-223 -539q-224 -223 -539 -223t-539 223q-223 224 -223 539zM154 720q0 -252 178 -430t430 -178t430 178t178 430t-178 430t-430 178t-430 -178t-178 -430zM477 1959h178l271 -459h-171z" />
<glyph unicode="&#xf3;" horiz-adv-x="1584" d="M0 720q0 315 223 539q224 223 539 223t539 -223q223 -224 223 -539t-223 -539q-224 -223 -539 -223t-539 223q-223 224 -223 539zM154 720q0 -252 178 -430t430 -178t430 178t178 430t-178 430t-430 178t-430 -178t-178 -430zM598 1500l271 459h178l-278 -459h-171z" />
<glyph unicode="&#xf4;" horiz-adv-x="1584" d="M0 720q0 315 223 539q224 223 539 223t539 -223q223 -224 223 -539t-223 -539q-224 -223 -539 -223t-539 223q-223 224 -223 539zM154 720q0 -252 178 -430t430 -178t430 178t178 430t-178 430t-430 178t-430 -178t-178 -430zM561 1495l202 321l201 -321h-161l-40 72 l-42 -72h-160z" />
<glyph unicode="&#xf5;" horiz-adv-x="1584" d="M0 720q0 315 223 539q224 223 539 223t539 -223q223 -224 223 -539t-223 -539q-224 -223 -539 -223t-539 223q-223 224 -223 539zM154 720q0 -252 178 -430t430 -178t430 178t178 430t-178 430t-430 178t-430 -178t-178 -430zM396 1564q97 179 233 179q105 0 183 -85 q40 -43 86 -43q41 5 70 42h161q-96 -179 -232 -179q-106 0 -184 86q-41 42 -86 42q-43 -1 -53 -42h-178z" />
<glyph unicode="&#xf6;" horiz-adv-x="1584" d="M0 720q0 315 223 539q224 223 539 223t539 -223q223 -224 223 -539t-223 -539q-224 -223 -539 -223t-539 223q-223 224 -223 539zM154 720q0 -252 178 -430t430 -178t430 178t178 430t-178 430t-430 178t-430 -178t-178 -430zM518 1593q0 48 34 82t82 34q47 0 81 -34 t34 -82q0 -47 -34 -81t-81 -34q-48 0 -82 34t-34 81zM775 1593q0 48 34 82t82 34q47 0 81 -34t34 -82q0 -47 -34 -81t-81 -34q-48 0 -82 34t-34 81z" />
<glyph unicode="&#xf7;" horiz-adv-x="885" d="M0 532v153h825v-153h-825zM305 804q0 48 34 82t82 34q47 0 81 -34t34 -82q0 -47 -34 -81t-81 -34q-48 0 -82 34t-34 81zM308 408q0 48 34 82t82 34q47 0 81 -34t34 -82q0 -47 -34 -81t-81 -34q-48 0 -82 34t-34 81z" />
<glyph unicode="&#xf8;" horiz-adv-x="1594" d="M0 720q0 317 224 543q226 224 543 224t543 -224q224 -226 224 -543t-224 -543q-226 -224 -543 -224t-543 224q-224 226 -224 543zM164 720q0 -250 177 -426q176 -177 426 -177t426 177q177 176 177 426t-177 426q-176 177 -426 177t-426 -177q-177 -176 -177 -426z M220 -132l890 1711h178l-890 -1711h-178z" />
<glyph unicode="&#xf9;" horiz-adv-x="1418" d="M0 733v727h151v-727q3 -248 158 -423q154 -174 370 -174t369 173q155 174 159 422v729h151v-729q-4 -314 -201 -536q-199 -223 -478 -223q-280 0 -479 224q-197 222 -200 537zM380 1959h178l271 -459h-171z" />
<glyph unicode="&#xfa;" horiz-adv-x="1418" d="M0 733v727h151v-727q3 -248 158 -423q154 -174 370 -174t369 173q155 174 159 422v729h151v-729q-4 -314 -201 -536q-199 -223 -478 -223q-280 0 -479 224q-197 222 -200 537zM529 1500l271 459h178l-278 -459h-171z" />
<glyph unicode="&#xfb;" horiz-adv-x="1412" d="M0 733v727h151v-727q3 -248 158 -423q154 -174 370 -174t369 173q155 174 159 422v729h151v-729q-4 -314 -201 -536q-199 -223 -478 -223q-280 0 -479 224q-197 222 -200 537zM478 1475l202 321l201 -321h-161l-40 72l-42 -72h-160z" />
<glyph unicode="&#xfc;" horiz-adv-x="1418" d="M0 733v727h151v-727q3 -248 158 -423q154 -174 370 -174t369 173q155 174 159 422v729h151v-729q-4 -314 -201 -536q-199 -223 -478 -223q-280 0 -479 224q-197 222 -200 537zM435 1573q0 48 34 82t82 34q47 0 81 -34t34 -82q0 -47 -34 -81t-81 -34q-48 0 -82 34t-34 81z M692 1573q0 48 34 82t82 34q47 0 81 -34t34 -82q0 -47 -34 -81t-81 -34q-48 0 -82 34t-34 81z" />
<glyph unicode="&#xfd;" horiz-adv-x="1248" d="M0 1459h172l438 -845l440 845h171l-533 -1015v-469h-155v469zM492 1424l184 306h180l-193 -306h-171z" />
<glyph unicode="&#xfe;" horiz-adv-x="1104" d="M0 -25v1483h478q141 0 283 -70q283 -137 283 -473q0 -337 -283 -474q-142 -69 -283 -69h-323v-397h-155zM155 525h323q108 1 211 52q196 97 196 338t-195 338q-104 51 -212 51h-323v-779z" />
<glyph unicode="&#xff;" horiz-adv-x="1437" d="M0 723v737h159l-1 -735q-4 -215 152 -429q163 -182 379 -182q205 0 367 162q154 172 159 407v778h131l31 -4v-1201v-180q-4 -317 -204 -543q-202 -226 -484 -226q-231 0 -417 160q-185 158 -246 410l-10 39h166l5 -24q55 -185 194 -300q138 -113 308 -113q213 0 369 175 t159 422l-2 180v-34q-49 -84 -200 -177q-152 -93 -326 -93q-284 0 -486 227q-200 226 -203 544zM448 1573q0 48 34 82t82 34q47 0 81 -34t34 -82q0 -47 -34 -81t-81 -34q-48 0 -82 34t-34 81zM705 1573q0 48 34 82t82 34q47 0 81 -34t34 -82q0 -47 -34 -81t-81 -34 q-48 0 -82 34t-34 81z" />
<glyph unicode="&#x152;" horiz-adv-x="1897" d="M0 720q0 317 224 543q226 224 543 224h-16v1h1086v-164h-589q-1 1 62 -61q224 -226 224 -543q0 -102 -15 -163h318v-164h-374q-49 -110 -153 -216q-62 -62 -60 -60h587v-164h-1074q-314 1 -539 224q-224 226 -224 543zM164 720q0 -250 177 -426q176 -177 426 -177 t426 177q177 176 177 426t-177 426q-176 177 -426 177t-426 -177q-177 -176 -177 -426z" />
<glyph unicode="&#x153;" horiz-adv-x="2928" d="M0 720q0 317 224 543q226 224 543 224t543 -224q108 -110 141 -187q33 76 140 184q224 222 539 222q264 0 470 -163q203 -160 275 -440h-175v1h-1148q-15 -48 -19 -120q1 -19 1 -40q0 -20 -1 -38q12 -222 174 -383q175 -175 423 -175q196 0 353 115q154 113 220 311h169 q-77 -275 -279 -431q-203 -158 -463 -158q-315 0 -539 222q-106 108 -139 183q-33 -79 -142 -189q-226 -224 -543 -224t-543 224q-224 226 -224 543zM164 720q0 -250 177 -426q176 -177 426 -177t426 177q177 176 177 426t-177 426q-176 177 -426 177t-426 -177 q-177 -176 -177 -426zM1613 1029h1032q-43 85 -156 171q-159 119 -359 119q-248 0 -423 -175q-71 -70 -94 -115z" />
<glyph unicode="&#x2c6;" horiz-adv-x="423" d="M0 1475l202 321l201 -321h-160l-40 72l-42 -72h-161z" />
<glyph unicode="&#x2dc;" horiz-adv-x="759" d="M0 1534q97 179 233 179q105 0 183 -85q40 -43 86 -43q41 5 70 42h161q-96 -179 -232 -179q-106 0 -184 86q-41 42 -86 42q-43 -1 -53 -42h-178z" />
<glyph unicode="&#x2000;" horiz-adv-x="979" />
<glyph unicode="&#x2001;" horiz-adv-x="1959" />
<glyph unicode="&#x2002;" horiz-adv-x="979" />
<glyph unicode="&#x2003;" horiz-adv-x="1959" />
<glyph unicode="&#x2004;" horiz-adv-x="653" />
<glyph unicode="&#x2005;" horiz-adv-x="489" />
<glyph unicode="&#x2006;" horiz-adv-x="326" />
<glyph unicode="&#x2007;" horiz-adv-x="326" />
<glyph unicode="&#x2008;" horiz-adv-x="244" />
<glyph unicode="&#x2009;" horiz-adv-x="391" />
<glyph unicode="&#x200a;" horiz-adv-x="108" />
<glyph unicode="&#x2010;" horiz-adv-x="885" d="M0 532v153h825v-153h-825z" />
<glyph unicode="&#x2011;" horiz-adv-x="885" d="M0 532v153h825v-153h-825z" />
<glyph unicode="&#x2012;" horiz-adv-x="885" d="M0 532v153h825v-153h-825z" />
<glyph unicode="&#x2013;" />
<glyph unicode="&#x2014;" />
<glyph unicode="&#x2018;" horiz-adv-x="384" d="M0 1461h179l184 -306h-171z" />
<glyph unicode="&#x2019;" horiz-adv-x="384" d="M0 1155l184 306h179l-192 -306h-171z" />
<glyph unicode="&#x201a;" horiz-adv-x="384" d="M0 -123l184 306h179l-192 -306h-171z" />
<glyph unicode="&#x201c;" horiz-adv-x="434" d="M0 966v492h159l-1 -492h-158zM215 966v492h159l-1 -492h-158z" />
<glyph unicode="&#x201d;" horiz-adv-x="434" d="M0 966v492h159l-1 -492h-158zM215 966v492h159l-1 -492h-158z" />
<glyph unicode="&#x201e;" horiz-adv-x="434" d="M0 179h159l-1 -492h-158v492zM215 179h159l-1 -492h-158v492z" />
<glyph unicode="&#x2022;" horiz-adv-x="406" d="M0 758q0 71 51 122t122 51t122 -51t51 -122t-51 -122t-122 -51t-122 51t-51 122z" />
<glyph unicode="&#x2026;" />
<glyph unicode="&#x202f;" horiz-adv-x="391" />
<glyph unicode="&#x2039;" horiz-adv-x="792" d="M0 738l761 395v-171q-69 -36 -272 -141q-183 -95 -159 -82q64 -33 431 -223v-172z" />
<glyph unicode="&#x203a;" horiz-adv-x="792" d="M0 344v172q368 190 432 223q23 -13 -160 82q-202 105 -272 141v171l761 -395z" />
<glyph unicode="&#x205f;" horiz-adv-x="489" />
<glyph unicode="&#x20ac;" horiz-adv-x="1843" d="M0 503l45 152h263q-2 18 -2 64q0 41 2 54h-308l45 152h288q43 175 194 327q221 220 533 220q261 0 466 -161q202 -159 273 -437h-168q-61 201 -216 318q-157 118 -355 118q-245 0 -419 -173q-107 -108 -139 -212h350l-45 -152h-337q-2 -16 -2 -54q0 -44 3 -64h381 l-45 -152h-302q31 -99 136 -203q174 -173 419 -173q194 0 350 114q152 112 217 308h168q-76 -273 -275 -427q-203 -157 -460 -157q-312 0 -533 220q-147 148 -191 318h-336z" />
<glyph unicode="&#x2122;" horiz-adv-x="1328" d="M0 1314v147h582v-147h-218v-640h-147v640h-217zM594 684v867l339 -633l335 633v-867h-140l1 321l-192 -369l-204 371v-323h-139z" />
<glyph unicode="&#x25fc;" horiz-adv-x="1460" d="M0 0v1460h1460v-1460h-1460z" />
</font>
</defs>
</svg>
